<?xml version="1.0" standalone="no"?>
<!DOCTYPE svg PUBLIC "-//W3C//DTD SVG 20010904//EN"
 "http://www.w3.org/TR/2001/REC-SVG-20010904/DTD/svg10.dtd">
<svg version="1.0" xmlns="http://www.w3.org/2000/svg"
 width="700.000000pt" height="700.000000pt" viewBox="0 0 700.000000 700.000000"
 preserveAspectRatio="xMidYMid meet">
<metadata>
Created by potrace 1.14, written by Peter Selinger 2001-2017
</metadata>
<g transform="translate(0.000000,700.000000) scale(0.100000,-0.100000)"
fill="#000000" stroke="none">
<path d="M3725 6678 c-274 -50 -441 -101 -625 -189 -307 -148 -572 -382 -755
-669 -60 -93 -155 -275 -155 -295 0 -12 -16 -15 -83 -15 -99 0 -220 -28 -286
-67 -62 -36 -171 -142 -171 -165 0 -33 88 -420 166 -727 41 -162 73 -295 72
-296 -2 -1 -22 -7 -45 -13 -59 -17 -146 -99 -179 -169 -23 -49 -27 -74 -34
-208 -4 -83 -4 -240 0 -347 7 -167 11 -202 29 -244 40 -90 126 -157 235 -185
l46 -11 0 -347 c0 -520 18 -702 76 -778 32 -42 192 -156 451 -320 l202 -128
-75 -73 c-95 -94 -174 -188 -174 -210 0 -13 -26 -25 -103 -50 -329 -104 -689
-374 -874 -655 -106 -159 -158 -297 -170 -444 l-6 -73 2242 0 2241 0 0 28 c0
15 -5 56 -10 92 -49 306 -280 615 -640 855 -122 82 -318 177 -426 206 -63 18
-84 28 -84 40 0 24 -70 111 -166 205 l-82 82 165 108 c203 132 386 267 435
322 106 117 138 297 138 772 0 146 3 288 6 317 7 51 7 51 52 63 107 27 193 95
233 184 17 40 23 80 30 230 10 191 5 416 -12 504 -21 109 -127 219 -235 243
l-54 12 0 166 c0 189 -14 428 -32 546 -7 44 -13 84 -13 88 0 5 47 26 104 48
185 69 521 250 521 280 0 13 -108 173 -181 270 -84 111 -150 180 -232 242 -66
51 -221 150 -250 160 -8 2 12 53 56 145 38 78 66 146 63 151 -4 5 -52 28 -109
49 -237 93 -355 115 -597 116 -193 1 -316 -15 -513 -63 l-117 -28 0 128 c0 97
-3 129 -12 128 -7 -1 -35 -6 -63 -11z m8 -452 c443 136 756 158 1062 75 44
-12 86 -26 94 -30 11 -7 -1 -37 -53 -139 -36 -72 -66 -133 -66 -136 0 -3 50
-31 111 -62 235 -120 363 -224 493 -400 77 -105 85 -89 -89 -174 -325 -160
-640 -228 -1010 -217 -225 6 -245 9 -930 152 -280 58 -613 127 -740 153 -126
26 -231 47 -233 48 -6 3 60 127 110 208 235 378 591 635 1043 751 l90 23 3
-143 3 -143 112 34z m-1603 -902 c0 -8 -12 -61 -26 -117 -14 -56 -50 -205 -78
-331 l-53 -229 -32 134 c-99 417 -105 448 -86 469 41 45 131 75 263 89 6 0 12
-6 12 -15z m873 -139 c358 -75 704 -146 767 -160 241 -50 333 -59 575 -59 197
0 249 3 360 23 195 35 178 40 192 -54 29 -200 37 -648 24 -1375 -7 -388 -14
-706 -16 -708 -2 -2 -90 58 -195 132 -460 325 -579 374 -752 305 -28 -11 -52
-18 -53 -17 -2 2 -17 82 -34 178 -29 167 -138 739 -162 850 l-11 52 -52 -6
c-28 -4 -55 -11 -60 -16 -4 -4 21 -159 58 -347 57 -296 116 -610 116 -620 0
-1 -74 -3 -165 -3 l-165 0 0 -65 0 -65 203 -2 202 -3 -85 -42 c-131 -64 -237
-78 -354 -48 -61 16 -86 27 -256 117 -120 63 -181 77 -263 58 -117 -27 -338
-154 -637 -369 l-115 -82 -3 808 -2 808 36 170 c41 194 151 652 159 666 4 5
13 9 21 9 8 0 308 -61 667 -135z m-1063 -1515 c0 -295 -3 -410 -11 -410 -25 0
-87 44 -105 73 -17 29 -19 56 -19 332 0 292 1 301 23 342 22 42 61 72 95 73
16 0 17 -26 17 -410z m3234 375 c21 -20 38 -50 43 -72 4 -21 8 -166 8 -323 -1
-263 -2 -288 -20 -317 -17 -30 -98 -83 -109 -73 -2 3 -2 188 1 413 6 384 7
407 24 407 10 0 34 -16 53 -35z m-2059 -979 c169 -94 251 -119 390 -119 161
-1 217 17 458 146 53 29 100 47 120 47 72 0 230 -92 594 -349 l223 -156 0 -96
c0 -182 -29 -378 -66 -451 -21 -41 -139 -130 -394 -300 l-224 -150 -13 38 c-8
21 -25 51 -40 66 l-26 27 38 74 c43 87 42 117 -7 173 -35 40 -32 55 23 118
l32 37 -37 37 -37 37 -35 -40 c-20 -22 -47 -64 -61 -93 -29 -63 -26 -89 19
-146 l31 -39 -27 -49 c-42 -74 -48 -104 -30 -147 8 -19 25 -46 36 -58 l22 -23
-23 -28 c-12 -15 -29 -43 -37 -62 -13 -31 -37 -48 -167 -122 -156 -89 -290
-158 -305 -158 -5 0 -14 10 -21 23 -6 12 -18 33 -25 46 -13 21 -11 27 20 68
46 61 46 104 -1 165 l-34 46 31 48 c19 30 33 67 36 94 4 40 0 51 -31 92 -39
51 -38 56 24 123 l28 30 -34 40 -33 40 -32 -30 c-47 -44 -90 -124 -90 -167 0
-30 8 -47 36 -78 l37 -40 -32 -52 c-54 -86 -54 -132 0 -192 l30 -35 -36 -46
c-39 -52 -45 -96 -20 -146 l16 -30 -103 52 c-57 28 -173 91 -259 140 l-156 89
19 40 c25 49 18 88 -24 136 l-30 34 37 74 c43 85 42 116 -7 172 -35 40 -32 55
23 118 l32 37 -37 37 -37 37 -35 -40 c-20 -22 -47 -64 -61 -93 -29 -63 -26
-89 19 -146 l31 -39 -27 -49 c-42 -74 -48 -104 -30 -147 8 -19 24 -45 35 -57
21 -22 16 -59 -7 -50 -44 17 -578 363 -646 419 -36 30 -46 99 -54 377 l-6 215
156 113 c293 211 518 351 616 383 53 18 103 3 225 -65z m-279 -1697 l33 -32
-26 -33 c-14 -19 -30 -34 -36 -34 -6 0 -28 17 -49 37 l-39 38 33 27 c18 15 37
28 43 28 5 0 24 -14 41 -31z m1423 4 l32 -28 -40 -39 -41 -40 -35 34 -35 34
32 33 c18 18 37 33 43 33 6 0 25 -12 44 -27z m-1549 -213 c-51 -65 -57 -67
-90 -35 -46 44 -46 59 -4 110 l37 46 43 -42 43 -42 -29 -37z m1720 19 c0 -20
-46 -79 -63 -79 -6 0 -30 21 -53 48 l-42 47 41 43 42 43 38 -42 c20 -23 37
-50 37 -60z m-1442 48 c23 -23 42 -47 42 -52 0 -5 -14 -24 -32 -42 l-32 -33
-48 47 -47 46 30 39 c17 21 34 38 38 38 4 0 26 -19 49 -43z m1107 -77 l-49
-49 -32 37 -32 37 46 48 46 47 35 -35 35 -35 -49 -50z m-640 -65 c65 -17 123
-5 226 45 34 16 65 30 67 30 3 0 -14 -20 -37 -45 l-41 -45 0 -110 0 -110 -37
-24 c-21 -13 -57 -44 -81 -69 l-44 -44 -44 47 c-24 25 -59 55 -78 65 l-34 19
-4 112 c-3 110 -4 114 -34 146 -63 69 -62 72 14 34 39 -20 97 -43 127 -51z
m-595 -10 l44 -45 -47 -48 -47 -47 -46 47 -47 46 39 46 c21 25 44 45 49 46 6
0 31 -20 55 -45z m1399 -2 l42 -47 -48 -48 -48 -49 -47 53 -47 53 41 42 c23
24 48 43 54 43 7 0 31 -21 53 -47z m-1108 -82 c-12 -22 -25 -41 -28 -41 -4 0
-26 19 -49 41 l-43 42 32 38 32 38 38 -38 39 -38 -21 -42z m787 2 c-23 -24
-45 -43 -48 -43 -4 0 -17 18 -29 41 l-23 41 38 40 39 39 33 -37 32 -38 -42
-43z m-1464 41 c10 -25 7 -34 -9 -34 -9 0 -15 9 -15 25 0 28 15 34 24 9z
m2106 -9 c0 -20 -5 -25 -25 -25 -28 0 -29 3 -15 31 15 28 40 24 40 -6z m-2230
-15 c0 -5 -12 -10 -27 -9 -25 0 -26 1 -8 9 27 12 35 12 35 0z m2355 0 c18 -8
17 -9 -7 -9 -16 -1 -28 4 -28 9 0 12 8 12 35 0z m-1685 -95 l44 -45 -47 -48
-47 -47 -47 47 -47 48 44 45 c24 25 47 45 50 45 3 0 26 -20 50 -45z m1077 -4
l42 -48 -48 -47 -48 -47 -47 51 -48 52 43 44 c24 24 48 44 54 44 5 0 29 -22
52 -49z m-1967 -76 l0 -65 -65 0 -65 0 0 39 c0 33 5 42 38 64 20 14 49 26 65
26 27 1 27 0 27 -64z m220 0 l0 -65 -65 0 -65 0 0 65 0 65 65 0 65 0 0 -65z
m209 16 c33 -78 31 -81 -44 -81 l-65 0 0 65 0 65 44 0 c43 0 44 -1 65 -49z
m181 10 c-1 -13 -3 -13 -15 3 -19 26 -19 42 0 26 8 -7 15 -20 15 -29z m1840
-26 l0 -65 -65 0 -65 0 0 35 c0 20 7 49 15 65 14 27 20 30 65 30 l50 0 0 -65z
m220 0 l0 -65 -65 0 -65 0 0 65 0 65 65 0 65 0 0 -65z m183 35 c41 -26 47 -34
47 -65 l0 -35 -65 0 -65 0 0 65 c0 77 10 82 83 35z m-693 -1 c-7 -11 -14 -18
-17 -15 -3 3 0 12 7 21 18 21 23 19 10 -6z m-1426 -119 c20 -22 36 -44 36 -48
0 -5 -13 -20 -28 -35 l-28 -27 -33 61 c-26 48 -30 63 -21 74 19 23 35 18 74
-25z m1358 19 c6 -9 -1 -33 -23 -73 l-32 -58 -30 31 -31 31 44 45 c45 46 57
50 72 24z m-2322 -154 l0 -65 -65 0 -65 0 0 58 c0 32 3 62 7 65 3 4 33 7 65 7
l58 0 0 -65z m230 0 l0 -65 -65 0 -65 0 0 65 0 65 65 0 65 0 0 -65z m220 0 l0
-65 -65 0 -65 0 0 65 0 65 65 0 65 0 0 -65z m230 0 l0 -65 -65 0 -65 0 0 65 0
65 65 0 65 0 0 -65z m670 0 l0 -65 -65 0 -65 0 0 46 c0 71 11 84 75 84 l55 0
0 -65z m634 40 c9 -13 16 -42 16 -65 l0 -40 -65 0 -65 0 0 65 0 65 49 0 c41 0
51 -4 65 -25z m696 -40 l0 -65 -65 0 -65 0 0 65 0 65 65 0 65 0 0 -65z m220 0
l0 -65 -65 0 -65 0 0 65 0 65 65 0 65 0 0 -65z m230 0 l0 -65 -65 0 -65 0 0
65 0 65 65 0 65 0 0 -65z m218 -2 l3 -63 -66 0 -65 0 0 65 0 66 63 -3 62 -3 3
-62z m-1568 -3 l0 -60 -51 0 -50 0 47 60 c26 33 49 60 50 60 2 0 4 -27 4 -60z
m-280 -10 l42 -50 -46 0 -46 0 0 50 c0 28 2 50 4 50 2 0 23 -22 46 -50z m950
-5 c0 -41 -2 -45 -25 -45 -14 0 -25 2 -25 6 0 6 44 84 48 84 1 0 2 -20 2 -45z
m-1655 -5 c19 -37 19 -40 -5 -40 -16 0 -20 7 -20 35 0 43 5 44 25 5z m-1015
-30 c0 -5 -5 -10 -11 -10 -5 0 -7 5 -4 10 3 6 8 10 11 10 2 0 4 -4 4 -10z m0
-180 l0 -70 -65 0 -65 0 0 48 c0 70 19 92 81 92 l49 0 0 -70z m220 0 l0 -70
-65 0 -65 0 0 70 0 70 65 0 65 0 0 -70z m230 0 l0 -70 -65 0 -65 0 0 70 0 70
65 0 65 0 0 -70z m220 0 l0 -70 -65 0 -65 0 0 70 0 70 65 0 65 0 0 -70z m230
0 l0 -70 -65 0 -65 0 0 70 0 70 65 0 65 0 0 -70z m208 45 c7 -14 12 -46 12
-70 l0 -45 -65 0 -65 0 0 70 0 70 53 0 c48 0 55 -3 65 -25z m242 -45 l0 -70
-65 0 c-59 0 -65 2 -65 20 0 11 6 23 14 26 7 3 28 25 45 50 19 26 40 44 52 44
17 0 19 -7 19 -70z m220 0 l0 -70 -65 0 -65 0 0 70 0 70 65 0 65 0 0 -70z
m200 0 l0 -70 -50 0 -50 0 0 70 0 70 50 0 50 0 0 -70z m230 0 l0 -70 -65 0
-65 0 0 70 0 70 65 0 65 0 0 -70z m220 0 l0 -70 -65 0 -65 0 0 70 0 70 65 0
65 0 0 -70z m155 27 c17 -23 41 -46 53 -52 12 -5 22 -18 22 -27 0 -15 -10 -18
-65 -18 l-65 0 0 70 c0 83 11 88 55 27z m295 -27 l0 -70 -65 0 -65 0 0 51 c0
77 10 89 75 89 l55 0 0 -70z m230 0 l0 -70 -65 0 -65 0 0 70 0 70 65 0 65 0 0
-70z m220 0 l0 -70 -65 0 -65 0 0 70 0 70 65 0 65 0 0 -70z m230 0 l0 -70 -65
0 -65 0 0 70 0 70 65 0 65 0 0 -70z m220 0 l0 -70 -65 0 -65 0 0 70 0 70 65 0
65 0 0 -70z m210 38 c11 -18 20 -50 20 -70 l0 -38 -65 0 -65 0 0 70 0 70 45 0
c40 0 47 -4 65 -32z m-3780 -268 l0 -70 -65 0 -65 0 0 70 0 70 65 0 65 0 0
-70z m220 0 l0 -70 -65 0 -65 0 0 70 0 70 65 0 65 0 0 -70z m230 0 l0 -70 -65
0 -65 0 0 70 0 70 65 0 65 0 0 -70z m220 0 l0 -70 -65 0 -65 0 0 70 0 70 65 0
65 0 0 -70z m230 0 l0 -70 -65 0 -65 0 0 70 0 70 65 0 65 0 0 -70z m220 0 l0
-70 -65 0 -65 0 0 70 0 70 65 0 65 0 0 -70z m230 0 l0 -70 -65 0 -65 0 0 70 0
70 65 0 65 0 0 -70z m220 0 l0 -70 -65 0 -65 0 0 70 0 70 65 0 65 0 0 -70z
m200 0 l0 -70 -50 0 -50 0 0 70 0 70 50 0 50 0 0 -70z m230 0 l0 -70 -65 0
-65 0 0 70 0 70 65 0 65 0 0 -70z m220 0 l0 -70 -65 0 -65 0 0 70 0 70 65 0
65 0 0 -70z m230 0 l0 -70 -65 0 -65 0 0 70 0 70 65 0 65 0 0 -70z m220 0 l0
-70 -65 0 -65 0 0 70 0 70 65 0 65 0 0 -70z m230 0 l0 -70 -65 0 -65 0 0 70 0
70 65 0 65 0 0 -70z m220 0 l0 -70 -65 0 -65 0 0 70 0 70 65 0 65 0 0 -70z
m230 0 l0 -70 -65 0 -65 0 0 70 0 70 65 0 65 0 0 -70z m220 0 l0 -70 -65 0
-65 0 0 70 0 70 65 0 65 0 0 -70z m230 0 l0 -70 -65 0 -65 0 0 70 0 70 65 0
65 0 0 -70z m-4034 -68 c-14 -13 -18 11 -10 55 l9 48 3 -49 c2 -26 1 -51 -2
-54z m4143 16 c1 -10 -3 -18 -9 -18 -5 0 -10 19 -9 43 1 36 2 38 9 17 4 -14 8
-33 9 -42z"/>
<path d="M4230 4772 c-80 -48 -164 -100 -188 -115 l-43 -28 22 -37 c12 -20 28
-43 35 -51 14 -16 4 -20 186 92 l108 67 62 -75 c34 -41 66 -75 71 -75 5 0 29
14 53 31 l45 31 -33 42 c-64 83 -161 201 -167 203 -3 2 -71 -37 -151 -85z"/>
<path d="M2502 4578 l3 -63 247 -3 246 -2 4 57 c2 32 3 61 1 66 -3 4 -117 7
-254 7 l-250 0 3 -62z"/>
<path d="M2452 4178 l3 -63 73 -3 72 -3 0 -32 c0 -80 68 -147 150 -147 82 0
150 67 150 148 l0 32 70 0 70 0 0 65 0 65 -295 0 -296 0 3 -62z"/>
<path d="M3980 4175 l0 -65 75 0 75 0 0 -42 c0 -81 61 -138 145 -138 84 0 145
57 145 138 l0 42 70 0 c62 0 70 2 70 19 0 10 3 39 6 65 l7 46 -297 0 -296 0 0
-65z"/>
<path d="M2743 2813 c-24 -13 -43 -29 -43 -35 0 -6 23 -55 52 -109 l52 -99
702 0 701 0 54 102 c30 57 55 105 56 108 4 6 -91 60 -105 60 -5 0 -26 -31 -46
-70 l-37 -70 -624 0 -625 0 -35 70 c-19 39 -41 70 -48 69 -6 -1 -31 -12 -54
-26z"/>
</g>
</svg>
