<?xml version="1.0" encoding="UTF-8"?>
<svg width="34px" height="21px" viewBox="0 0 34 21" version="1.1" xmlns="http://www.w3.org/2000/svg" xmlns:xlink="http://www.w3.org/1999/xlink">
    <title>Group 2</title>
    <g id="Page-1" stroke="none" stroke-width="1" fill="none" fill-rule="evenodd">
        <g id="Group-2" transform="translate(0.228858, 0.000000)">
            <path d="M16.6221423,2.2102925 C17.0831423,1.4632925 17.8451423,0.677292503 18.6671423,0.343292503 C20.0791423,-0.295707497 21.9721423,-0.0227074973 23.1261423,0.996292503 C24.2381423,2.0062925 24.8041423,3.3892925 24.5351423,4.9352925 C24.8131423,4.8862925 25.0871423,4.7082925 25.3741423,4.6112925 C27.1081423,4.1242925 28.9371423,4.6512925 30.0441423,6.1372925 C30.8801423,7.1962925 31.1021423,8.8422925 30.5971423,10.1192925 C30.3511423,10.7642925 29.9271423,11.3452925 29.3761423,11.8372925 L29.4331423,11.8932925 C31.0441423,11.9732925 32.6241423,13.2232925 33.1141423,14.7542925 C33.6451423,16.3022925 33.1771423,17.9562925 32.0451423,19.0842925 C31.1231423,19.9972925 29.9341423,20.3142925 28.6131423,20.2872925 L4.63614228,20.2872925 C2.66514228,20.3322925 1.14514228,19.4602925 0.324142281,17.7062925 C-0.317857719,16.2012925 0.00314228114,14.2822925 1.20414228,13.1362925 C1.95814228,12.3432925 2.90414228,12.0212925 3.93114228,11.8582925 C2.77314228,10.7862925 2.21414228,9.3172925 2.53714228,7.7402925 C2.77214228,6.4622925 3.85914228,5.1712925 5.11114228,4.7242925 C6.21214228,4.2862925 7.70114228,4.3632925 8.71214228,4.9562925 L8.74914228,4.9142925 C8.44614228,3.1772925 9.21414228,1.6062925 10.6531423,0.645292503 C11.9401423,-0.222707497 13.9971423,-0.200707497 15.2551423,0.725292503 C15.8191423,1.0702925 16.2841423,1.6672925 16.6221423,2.2102925" id="Path" fill="#FFFFFF" fill-rule="nonzero"></path>
            <path d="M23.3321423,2.8982925 C23.1581423,2.4832925 22.8571423,2.0812925 22.4351423,1.7032925 C21.4721423,0.882292503 19.9331423,0.731292503 18.8541423,1.3562925 C17.8491423,1.8912925 17.2131423,2.9322925 17.1891423,4.0712925 L18.5451423,4.0832925 L18.5711423,4.0862925 L18.5931423,4.1012925 L18.6771423,4.1372925 C18.7591423,4.1682925 18.8701423,4.2102925 18.8991423,4.3472925 L18.9101423,4.4002925 L18.8671423,4.4362925 C18.7501423,4.5252925 18.6191423,4.6112925 18.4781423,4.7022925 C17.9401423,5.0542925 17.3861423,5.4162925 17.4761423,6.0902925 L18.9381423,15.3162925 L23.0051423,6.1582925 L23.0071423,6.1552925 L23.0091423,6.1512925 C23.4911423,5.3152925 23.8611423,3.9642925 23.3321423,2.8982925" id="Path" fill="#6B5BA2" fill-rule="nonzero"></path>
            <path d="M14.1311423,1.2462925 C12.9571423,0.754292503 11.5391423,1.0172925 10.6811423,1.8912925 C9.78914228,2.7682925 9.47014228,4.0272925 9.84214228,5.1732925 C9.89914228,5.3052925 14.0931423,14.6622925 14.0881423,14.6602925 L14.4121423,15.3092925 C14.6481423,13.7952925 16.0761423,4.6522925 16.0721423,4.6522925 C16.1811423,3.9602925 16.0491423,3.2792925 15.6661423,2.5782925 C15.3231423,2.0052925 14.7591423,1.5192925 14.1311423,1.2462925" id="Path" fill="#E01241" fill-rule="nonzero"></path>
            <path d="M29.4871423,7.1592925 C29.0551423,6.2942925 28.1611423,5.6462925 27.1501423,5.4622925 C25.7541423,5.2732925 24.4651423,5.8992925 23.7991423,7.0922925 L19.1291423,17.6252925 L19.1121423,17.6772925 C20.3941423,16.7962925 27.7261423,11.7622925 27.7241423,11.7652925 C27.8661423,11.6612925 28.0151423,11.5592925 28.1581423,11.4592925 C28.5791423,11.1732925 29.0131423,10.8812925 29.2991423,10.4172925 C29.9441423,9.5052925 30.0281423,8.0742925 29.4871423,7.1592925" id="Path" fill="#0F80C3" fill-rule="nonzero"></path>
            <path d="M5.48914228,5.6502925 C4.58114228,5.9882925 3.80614228,6.8502925 3.55414228,7.7852925 C3.22914228,9.0142925 3.61414228,10.2382925 4.58914228,11.0562925 L14.2361423,17.7072925 L9.46914228,7.0932925 C8.68814228,5.7002925 7.00814228,5.0922925 5.48914228,5.6502925" id="Path" fill="#EA661A"></path>
            <path d="M32.0421423,14.7952925 C31.7171423,14.0712925 31.0441423,13.4062925 30.3691423,13.1422925 C29.4711423,12.7132925 28.2101423,12.7962925 27.3681423,13.3372925 L18.8491423,19.2642925 C20.5191423,19.2642925 29.0131423,19.2592925 29.0171423,19.2592925 C30.0521423,19.2842925 30.9611423,18.8572925 31.6481423,18.0192925 C32.3351423,17.1602925 32.5041423,15.7742925 32.0421423,14.7952925" id="Path" fill="#009640" fill-rule="nonzero"></path>
            <path d="M2.97914228,13.2202925 C2.32714228,13.4782925 1.66314228,14.1372925 1.34914228,14.8342925 C0.900142281,15.7842925 1.06314228,17.1302925 1.72814228,17.9642925 C2.39914228,18.7782925 3.28314228,19.1952925 4.29514228,19.1692925 L14.1741423,19.1782925 C12.3671423,17.9192925 5.89114228,13.4112925 5.89514228,13.4142925 C5.07414228,12.8882925 3.85214228,12.8062925 2.97914228,13.2202925" id="Path" fill="#F9B510" fill-rule="nonzero"></path>
        </g>
    </g>
</svg>