<?xml version="1.0" encoding="UTF-8"?>
<svg width="292px" height="292px" viewBox="0 0 292 292" version="1.1" xmlns="http://www.w3.org/2000/svg" xmlns:xlink="http://www.w3.org/1999/xlink">
    <title>avatar</title>
    <defs>
        <circle id="path-1" cx="146" cy="146" r="146"></circle>
    </defs>
    <g id="Page-1" stroke="none" stroke-width="1" fill="none" fill-rule="evenodd">
        <g id="avatar">
            <circle id="background" fill="#BBDE77" cx="146" cy="146" r="146"></circle>
            <g>
                <mask id="mask-2" fill="white">
                    <use xlink:href="#path-1"></use>
                </mask>
                <circle stroke="#75923C" stroke-width="6" cx="146" cy="146" r="143"></circle>
                <g mask="url(#mask-2)" id="head">
                    <g transform="translate(59.702886, 22.572884)">
                        <g transform="translate(0.000000, 0.000000)">
                            <path d="M138.293533,103.855335 C141.610179,92.7628639 154.678454,95.8397839 157.068247,101.569674 C160.534844,109.881364 158.703153,126.842045 157.068247,132.414284 C155.236555,138.657228 140.494316,138.852989 138.293533,129.496729 C137.623153,119.717598 137.623153,109.204831 138.293533,103.855335 Z" id="right-ear" stroke="#000000" stroke-width="7" fill="#FBD4AD" fill-rule="nonzero" stroke-linejoin="round" transform="translate(148.415113, 116.625337) scale(-1, 1) translate(-148.415113, -116.625337) "></path>
                            <path d="M15.2935329,103.855335 C18.6101793,92.7628639 31.6784539,95.8397839 34.068247,101.569674 C37.5348444,109.881364 35.7031525,126.842045 34.068247,132.414284 C32.2365551,138.657228 17.494316,138.852989 15.2935329,129.496729 C14.623153,119.717598 14.623153,109.204831 15.2935329,103.855335 Z" id="left-ear" stroke="#000000" stroke-width="7" fill="#FBD4AD" fill-rule="nonzero" stroke-linejoin="round"></path>
                            <path d="M59.7447762,263.427116 C59.7447762,250.591868 59.7447762,202.405111 59.7447762,192.498884 C59.7447762,188.752867 104.202619,192.498884 108.050526,192.498884 C114.238341,192.498884 107.795095,244.62399 108.050526,263.427116 C93.4568102,263.427116 73.6193391,263.427116 59.7447762,263.427116 Z" id="neck-skin" fill="#FBD4AD" fill-rule="nonzero"></path>
                            <path d="M29.6657679,183.201798 C27.4816491,180.461537 27.4816491,165.011055 27.4816491,156.232885 C27.4816491,136.850026 27.4816491,98.2342913 27.4816491,88.3280642 C27.4816491,84.5820474 26.526928,51.5707049 37.3559026,46.3520918 C49.8908757,40.3113374 138.7723,58.0086166 142.916511,58.0086166 C149.580813,58.0086166 145.951041,137.926505 145.951041,156.232885 C145.951041,164.261773 145.951041,178.717842 141.682258,183.201798 C138.125154,188.121535 92.9200394,216.86858 86.7163451,216.86858 C80.5126509,216.86858 32.9238635,187.044329 29.6657679,183.201798 Z" id="face" stroke="#000000" stroke-width="7" fill="#FBD4AD" fill-rule="nonzero" stroke-linejoin="round"></path>
                            <g id="beard" stroke-linejoin="round" transform="translate(27.481649, 134.190335)" stroke="#000000">
                                <path d="M2.18411877,49.0114634 C1.52020044e-23,46.2712023 1.52020044e-23,30.8207205 1.52020044e-23,22.0425501 C11.624418,13.5900585 29.4303359,-2.39899859e-24 36.2979756,-2.39899859e-24 C43.1656152,-2.39899859e-24 47.6662485,7.93920008 59.2035097,7.93920008 C70.7407709,7.93920008 75.7652484,-2.39899859e-24 82.4295497,-2.39899859e-24 C89.093851,-2.39899859e-24 107.534857,14.7461841 118.469392,22.0425501 C118.469392,30.0714383 118.469392,44.5275079 114.200609,49.0114634 C110.643505,53.9312008 65.4383903,82.6782458 59.234696,82.6782458 C53.0310018,82.6782458 5.44221434,52.853995 2.18411877,49.0114634 Z" id="Path" stroke-width="7" fill="#EE8203" fill-rule="nonzero"></path>
                                <path d="M86.3140981,41.0416295 C85.3447505,41.9009086 82.263127,45.0710939 82.263127,47.2561277 C82.263127,49.4411615 85.0004335,49.631576 85.0004335,52.0178733 C85.0004335,54.4041707 82.263127,56.1155652 82.263127,58.3161895 C82.263127,60.5168137 85.0004335,61.0876148 85.0004335,63.2097417 C85.0004335,65.3318687 82.263127,66.2781921 82.263127,68.392179" id="beard-line-3" stroke-width="4"></path>
                                <path d="M61.3140981,47.0416295 C60.3447505,47.9009086 57.263127,51.0710939 57.263127,53.2561277 C57.263127,55.4411615 60.0004335,55.631576 60.0004335,58.0178733 C60.0004335,60.4041707 57.263127,62.1155652 57.263127,64.3161895 C57.263127,66.5168137 60.0004335,67.0876148 60.0004335,69.2097417 C60.0004335,71.3318687 57.263127,72.2781921 57.263127,74.392179 C57.263127,76.5061659 60.0004335,78.4481981 60.0004335,80.3435233" id="beard-line-2" stroke-width="4"></path>
                                <path d="M36.3140981,41.0416295 C35.3447505,41.9009086 32.263127,45.0710939 32.263127,47.2561277 C32.263127,49.4411615 35.0004335,49.631576 35.0004335,52.0178733 C35.0004335,54.4041707 32.263127,56.1155652 32.263127,58.3161895 C32.263127,60.5168137 35.0004335,61.0876148 35.0004335,63.2097417 C35.0004335,65.3318687 32.263127,66.2781921 32.263127,68.392179" id="beard-line-1" stroke-width="4"></path>
                            </g>
                            <path d="M94.6540449,-1.42108547e-14 C67.7067303,4.36217137 48.6588593,18.5756111 37.5104316,42.6403191 C29.4189609,71.5352069 27.700666,86.0941579 25.4151129,92.7041835 C21.0939589,76.4613671 17.4360646,60.6206347 15.9048107,52.9740812 C21.0939589,46.9233288 27.4880879,44.4317547 45.5996229,48.1317259 C55.3039463,50.1142037 77.2206061,54.8024914 100.753933,59.5752521 C121.479243,63.778523 145.26188,62.0055628 168.955549,46.9233288 C159.612565,32.6366858 155.340499,29.0556766 141.733374,22.0753274 C143.547302,18.1863936 145.573914,15.3169413 147.446077,10.8700638 C136.442255,6.22098959 122.012187,2.20526749 94.6540449,10.8700638 C94.6540449,6.22098959 94.6540449,3.6706385 94.6540449,-1.42108547e-14 Z" id="hair" stroke="#000000" stroke-width="7" fill="#EE8203" fill-rule="nonzero"></path>
                            <g id="right-eye" transform="translate(105.446004, 94.927116)" stroke="#000000">
                                <circle id="Oval" fill="#000000" fill-rule="nonzero" cx="11.8511096" cy="5.5" r="5.5"></circle>
                                <path d="M23.4460176,1.47353205 C20.8283228,1.39019871 13.0129836,1.3886047 -4.5397746e-23,1.46875" id="Path" stroke-width="5"></path>
                            </g>
                            <g id="left-eye" transform="translate(44.446004, 94.927116)" stroke="#000000">
                                <circle id="Oval" fill="#000000" fill-rule="nonzero" cx="11.8511096" cy="5.5" r="5.5"></circle>
                                <path d="M23.4460176,1.47353205 C20.8283228,1.39019871 13.0129836,1.3886047 -4.5397746e-23,1.46875" id="Path" stroke-width="5"></path>
                            </g>
                            <path d="M66.4526408,80.3958663 C63.834946,80.3125329 57.1660671,80.3125329 46.446004,80.3958663" id="left-eyebrow" stroke="#000000" stroke-width="5"></path>
                            <path d="M83.3371493,131.690979 C86.7163451,131.690979 95.3725059,131.697742 99.6951286,131.690979 C98.7467113,125.530459 96.1119178,111.526711 91.790748,89.6797371" id="nose" stroke="#000000" stroke-width="5"></path>
                            <path d="M127.452641,80.3958663 C125.606793,77.5350868 122.843963,74.8645615 120.908407,72.1993917 C118.839908,73.3171249 114.382102,76.0492831 107.534989,80.3958663" id="right-eyebrow" stroke="#000000" stroke-width="5"></path>
                            <path d="M56.3057853,150.866995 C57.5135008,153.064158 58.7431625,155.598501 59.9036263,157.848664 C64.4339156,157.848664 108.755904,157.848664 113.064719,157.848664 C114.254624,155.521441 115.514595,153.194218 116.844632,150.866995" id="mouth" stroke="#000000" stroke-width="5"></path>
                            <g id="shirt" transform="translate(-0.000000, 203.639541)">
                                <path d="M0,59.7875754 L173.795748,59.7875754 C167.806828,44.4157681 162.136407,33.981997 156.784485,28.486262 C151.432564,22.9905271 142.303693,18.2273301 129.397874,14.196671 C111.111068,15.9906995 100.318199,17.5210009 97.0192678,18.7875754 C97.0192678,26.9636576 96.5363214,26.9636576 86.5752089,34.1170792 C81.4242028,29.2591664 76.2971139,25.7875754 76.2971139,18.7875754 C71.3177135,16.2836726 60.6846335,14.7533711 44.3978738,14.196671 C31.7963658,18.1083741 22.7617294,22.8715711 17.2939647,28.486262 C11.8262,34.1009529 6.0615451,44.5347241 0,59.7875754 Z" id="shirt-colour" fill="#699ABA" fill-rule="nonzero"></path>
                                <g id="stripes" opacity="0.645600818" stroke-linecap="square" transform="translate(0.297114, 15.885688)" stroke="#3E596C" stroke-width="4">
                                    <g id="vertical-left" transform="translate(5.500000, 0.000000)">
                                        <line x1="0.5" y1="27.9018874" x2="0.5" y2="42.9018874" id="Line"></line>
                                        <line x1="9.5" y1="16.9018874" x2="9.5" y2="42.9018874" id="Line"></line>
                                        <line x1="18.5" y1="9.90188741" x2="18.5" y2="42.9018874" id="Line"></line>
                                        <line x1="27.5" y1="5.90188741" x2="27.5" y2="42.9018874" id="Line"></line>
                                        <line x1="36.5" y1="0.997427971" x2="36.5" y2="42.9018874" id="Line"></line>
                                        <line x1="45.5" y1="9.7531993e-16" x2="45.5" y2="42.9018874" id="Line"></line>
                                        <line x1="54.5" y1="2.90188741" x2="54.5" y2="42.9018874" id="Line"></line>
                                        <line x1="63.5" y1="2.90188741" x2="63.5" y2="42.9018874" id="Line"></line>
                                        <line x1="72.5" y1="11.6734158" x2="72.5" y2="42.9018874" id="Line"></line>
                                    </g>
                                    <g id="vertical-right" transform="translate(131.000000, 21.450944) scale(-1, 1) translate(-131.000000, -21.450944) translate(94.500000, 0.000000)">
                                        <line x1="0.5" y1="27.9018874" x2="0.5" y2="42.9018874" id="Line"></line>
                                        <line x1="9.5" y1="16.9018874" x2="9.5" y2="42.9018874" id="Line"></line>
                                        <line x1="18.5" y1="9.90188741" x2="18.5" y2="42.9018874" id="Line"></line>
                                        <line x1="27.5" y1="5.90188741" x2="27.5" y2="42.9018874" id="Line"></line>
                                        <line x1="36.5" y1="0.997427971" x2="36.5" y2="42.9018874" id="Line"></line>
                                        <line x1="45.5" y1="9.7531993e-16" x2="45.5" y2="42.9018874" id="Line"></line>
                                        <line x1="54.5" y1="2.90188741" x2="54.5" y2="42.9018874" id="Line"></line>
                                        <line x1="63.5" y1="1.90188741" x2="63.5" y2="42.9018874" id="Line"></line>
                                        <line x1="72.5" y1="11.6734158" x2="72.5" y2="42.9018874" id="Line"></line>
                                    </g>
                                    <g id="horizontal" transform="translate(0.000000, 5.401887)">
                                        <line x1="-4.99600358e-15" y1="37" x2="173" y2="37" id="Line"></line>
                                        <line x1="1" y1="28" x2="170.527164" y2="28" id="Line"></line>
                                        <line x1="6" y1="18.5" x2="166" y2="18.5" id="Line"></line>
                                        <line x1="15.0794562" y1="9.5" x2="81" y2="9.5" id="Line"></line>
                                        <line x1="93.0794562" y1="9.5" x2="158" y2="9.5" id="Line"></line>
                                        <line x1="27.1630839" y1="0.5" x2="74" y2="0.5" id="Line"></line>
                                        <line x1="96.7221539" y1="0.5" x2="146.640615" y2="0.5" id="Line"></line>
                                    </g>
                                </g>
                                <path d="M0,59.7875754 C0,36.4248486 29.8439544,16.4562809 45.6148932,14.3604591 C52.1074156,13.4976589 67.7207807,15.885688 77.2971139,18.7875754 C77.2971139,21.7875754 77.2971139,26.2936822 77.2971139,27.5591038 C78.4415109,28.3859125 80.2578024,29.1270889 81.684437,30.4224502 C82.7166202,31.3596561 84.2541792,33.1480311 86.2971139,35.7875754" id="shirt-outline-left" stroke="#000000" stroke-width="6" stroke-linecap="square" stroke-linejoin="round"></path>
                                <path d="M87,59.7875754 C87,36.4248486 116.843954,16.4562809 132.614893,14.3604591 C139.107416,13.4976589 154.720781,15.885688 164.297114,18.7875754 C164.297114,21.7875754 164.297114,26.2936822 164.297114,27.5591038 C165.441511,28.3859125 167.257802,29.1270889 168.684437,30.4224502 C169.71662,31.3596561 171.254179,33.1480311 173.297114,35.7875754" id="shirt-outline-right" stroke="#000000" stroke-width="6" stroke-linecap="square" stroke-linejoin="round" transform="translate(130.148557, 36.984643) scale(-1, 1) translate(-130.148557, -36.984643) "></path>
                                <path d="M86.2971139,34.1170792 C86.2971139,36.4749685 86.2971139,54.9322738 86.2971139,59.7875754" id="shirt-zip" stroke="#000000" stroke-width="4"></path>
                                <g id="colar" transform="translate(46.052772, -0.000000)">
                                    <path d="M0,17.9764021 C3.77065623,13.805498 14.2634152,2.86857074 18.3552627,-1.52020044e-23 C22.1171349,0.958609048 28.6944915,8.52321838 30.8847795,11.4372371 C30.8847795,15.173139 20.3008774,34.7310551 15.5487674,42.7925371 C10.5879908,36.4091938 1.06172636,20.8575761 0,17.9764021 Z" id="colour" fill="#699ABA" fill-rule="nonzero" transform="translate(15.442390, 21.396269) scale(-1, 1) translate(-15.442390, -21.396269) "></path>
                                    <g id="lines" opacity="0.645600818" stroke-linecap="square" transform="translate(1.244342, 5.787576)" stroke="#3E596C" stroke-width="4">
                                        <g id="horizontal">
                                            <line x1="3.33066907e-16" y1="8" x2="19" y2="27" id="Line"></line>
                                            <line x1="5" y1="0" x2="24" y2="19" id="Line"></line>
                                        </g>
                                        <g id="vertical" transform="translate(4.000000, 1.000000)">
                                            <line x1="12" y1="0" x2="3.33066907e-16" y2="13" id="Line"></line>
                                            <line x1="17" y1="8" x2="5" y2="21" id="Line"></line>
                                            <line x1="22" y1="16" x2="10" y2="29" id="Line"></line>
                                        </g>
                                    </g>
                                    <path d="M0,17.9764021 C3.77065623,13.805498 14.2634152,2.86857074 18.3552627,5.68434189e-14 C22.1171349,0.958609048 28.6944915,8.52321838 30.8847795,11.4372371 C30.8847795,15.173139 20.3008774,34.7310551 15.5487674,42.7925371 C10.5879908,36.4091938 1.06172636,20.8575761 0,17.9764021 Z" id="outline" stroke="#000000" stroke-width="6" stroke-linejoin="round" transform="translate(15.442390, 21.396269) scale(-1, 1) translate(-15.442390, -21.396269) "></path>
                                </g>
                                <g id="colar" transform="translate(111.610382, 21.396269) scale(-1, 1) translate(-111.610382, -21.396269) translate(96.167992, 0.000000)">
                                    <path d="M0,17.9764021 C3.77065623,13.805498 14.2634152,2.86857074 18.3552627,-1.52020044e-23 C22.1171349,0.958609048 28.6944915,8.52321838 30.8847795,11.4372371 C30.8847795,15.173139 20.3008774,34.7310551 15.5487674,42.7925371 C10.5879908,36.4091938 1.06172636,20.8575761 0,17.9764021 Z" id="colour" fill="#699ABA" fill-rule="nonzero" transform="translate(15.442390, 21.396269) scale(-1, 1) translate(-15.442390, -21.396269) "></path>
                                    <g id="lines" opacity="0.645600818" stroke-linecap="square" transform="translate(1.244342, 5.787576)" stroke="#3E596C" stroke-width="4">
                                        <g id="horizontal">
                                            <line x1="3.33066907e-16" y1="8" x2="19" y2="27" id="Line"></line>
                                            <line x1="5" y1="0" x2="24" y2="19" id="Line"></line>
                                        </g>
                                        <g id="vertical" transform="translate(4.000000, 1.000000)">
                                            <line x1="12" y1="0" x2="3.33066907e-16" y2="13" id="Line"></line>
                                            <line x1="17" y1="8" x2="5" y2="21" id="Line"></line>
                                            <line x1="22" y1="16" x2="10" y2="29" id="Line"></line>
                                        </g>
                                    </g>
                                    <path d="M0,17.9764021 C3.77065623,13.805498 14.2634152,2.86857074 18.3552627,5.68434189e-14 C22.1171349,0.958609048 28.6944915,8.52321838 30.8847795,11.4372371 C30.8847795,15.173139 20.3008774,34.7310551 15.5487674,42.7925371 C10.5879908,36.4091938 1.06172636,20.8575761 0,17.9764021 Z" id="outline" stroke="#000000" stroke-width="6" stroke-linejoin="round" transform="translate(15.442390, 21.396269) scale(-1, 1) translate(-15.442390, -21.396269) "></path>
                                </g>
                            </g>
                        </g>
                    </g>
                </g>
            </g>
            <circle id="border" stroke="#75923C" stroke-width="6" cx="146" cy="146" r="143"></circle>
        </g>
    </g>
</svg>