<?xml version="1.0" encoding="UTF-8"?>
<svg width="280px" height="280px" viewBox="0 0 280 280" version="1.1" xmlns="http://www.w3.org/2000/svg" xmlns:xlink="http://www.w3.org/1999/xlink">
    <title>avatar</title>
    <g id="avatar" stroke="none" stroke-width="1" fill="none" fill-rule="evenodd">
        <rect fill="#BBDE77" x="0" y="0" width="280" height="280"></rect>
        <g transform="translate(53.493634, 16.572884)">
            <path d="M138.502785,103.855335 C141.819431,92.7628639 154.887706,95.8397839 157.277499,101.569674 C160.744096,109.881364 158.912405,126.842045 157.277499,132.414284 C155.445807,138.657228 140.703568,138.852989 138.502785,129.496729 C137.832405,119.717598 137.832405,109.204831 138.502785,103.855335 Z" id="right-ear" stroke="#000000" stroke-width="7" fill="#FBD4AD" stroke-linejoin="round" transform="translate(148.624365, 116.625337) scale(-1, 1) translate(-148.624365, -116.625337) "></path>
            <path d="M15.5027849,103.855335 C18.8194313,92.7628639 31.8877059,95.8397839 34.277499,101.569674 C37.7440964,109.881364 35.9124045,126.842045 34.277499,132.414284 C32.4458071,138.657228 17.703568,138.852989 15.5027849,129.496729 C14.832405,119.717598 14.832405,109.204831 15.5027849,103.855335 Z" id="left-ear" stroke="#000000" stroke-width="7" fill="#FBD4AD" stroke-linejoin="round"></path>
            <path d="M59.9540282,263.427116 C59.9540282,250.591868 59.9540282,202.405111 59.9540282,192.498884 C59.9540282,188.752867 104.411871,192.498884 108.259778,192.498884 C114.447593,192.498884 108.004347,244.62399 108.259778,263.427116 C93.6660622,263.427116 73.8285911,263.427116 59.9540282,263.427116 Z" id="neck-skin" fill="#FBD4AD"></path>
            <path d="M29.8750199,183.201798 C27.6909011,180.461537 27.6909011,165.011055 27.6909011,156.232885 C27.6909011,136.850026 27.6909011,98.2342913 27.6909011,88.3280642 C27.6909011,84.5820474 26.73618,51.5707049 37.5651546,46.3520918 C50.1001277,40.3113374 138.981552,58.0086166 143.125763,58.0086166 C149.790065,58.0086166 146.160293,137.926505 146.160293,156.232885 C146.160293,164.261773 146.160293,178.717842 141.89151,183.201798 C138.334406,188.121535 93.1292914,216.86858 86.9255971,216.86858 C80.7219029,216.86858 33.1331155,187.044329 29.8750199,183.201798 Z" id="face" stroke="#000000" stroke-width="7" fill="#FBD4AD" stroke-linejoin="round"></path>
            <g id="beard" transform="translate(27.690901, 134.190335)" stroke="#000000" stroke-linejoin="round">
                <path d="M2.18411877,49.0114634 C-1.42108547e-14,46.2712023 -1.42108547e-14,30.8207205 -1.42108547e-14,22.0425501 C11.624418,13.5900585 29.4303359,-7.10542736e-15 36.2979756,-7.10542736e-15 C43.1656152,-7.10542736e-15 47.6662485,7.93920008 59.2035097,7.93920008 C70.7407709,7.93920008 75.7652484,-7.10542736e-15 82.4295497,-7.10542736e-15 C89.093851,-7.10542736e-15 107.534857,14.7461841 118.469392,22.0425501 C118.469392,30.0714383 118.469392,44.5275079 114.200609,49.0114634 C110.643505,53.9312008 65.4383903,82.6782458 59.234696,82.6782458 C53.0310018,82.6782458 5.44221434,52.853995 2.18411877,49.0114634 Z" stroke-width="7" fill="#EE8203"></path>
                <path d="M86.3140981,41.0416295 C85.3447505,41.9009086 82.263127,45.0710939 82.263127,47.2561277 C82.263127,49.4411615 85.0004335,49.631576 85.0004335,52.0178733 C85.0004335,54.4041707 82.263127,56.1155652 82.263127,58.3161895 C82.263127,60.5168137 85.0004335,61.0876148 85.0004335,63.2097417 C85.0004335,65.3318687 82.263127,66.2781921 82.263127,68.392179" id="beard-line-3" stroke-width="4"></path>
                <path d="M61.3140981,47.0416295 C60.3447505,47.9009086 57.263127,51.0710939 57.263127,53.2561277 C57.263127,55.4411615 60.0004335,55.631576 60.0004335,58.0178733 C60.0004335,60.4041707 57.263127,62.1155652 57.263127,64.3161895 C57.263127,66.5168137 60.0004335,67.0876148 60.0004335,69.2097417 C60.0004335,71.3318687 57.263127,72.2781921 57.263127,74.392179 C57.263127,76.5061659 60.0004335,78.4481981 60.0004335,80.3435233" id="beard-line-2" stroke-width="4"></path>
                <path d="M36.3140981,41.0416295 C35.3447505,41.9009086 32.263127,45.0710939 32.263127,47.2561277 C32.263127,49.4411615 35.0004335,49.631576 35.0004335,52.0178733 C35.0004335,54.4041707 32.263127,56.1155652 32.263127,58.3161895 C32.263127,60.5168137 35.0004335,61.0876148 35.0004335,63.2097417 C35.0004335,65.3318687 32.263127,66.2781921 32.263127,68.392179" id="beard-line-1" stroke-width="4"></path>
            </g>
            <path d="M94.8632969,1.42108547e-14 C67.9159823,4.36217137 48.8681113,18.5756111 37.7196836,42.6403191 C29.6282129,71.5352069 27.909918,86.0941579 25.6243649,92.7041835 C21.3032109,76.4613671 17.6453166,60.6206347 16.1140627,52.9740812 C21.3032109,46.9233288 27.6973399,44.4317547 45.8088749,48.1317259 C55.5131983,50.1142037 77.4298581,54.8024914 100.963185,59.5752521 C121.688495,63.778523 145.471132,62.0055628 169.164801,46.9233288 C159.821817,32.6366858 155.549751,29.0556766 141.942626,22.0753274 C143.756554,18.1863936 145.783166,15.3169413 147.655329,10.8700638 C136.651507,6.22098959 122.221439,2.20526749 94.8632969,10.8700638 C94.8632969,6.22098959 94.8632969,3.6706385 94.8632969,1.42108547e-14 Z" id="hair" stroke="#000000" stroke-width="7" fill="#EE8203"></path>
            <g id="right-eye" transform="translate(105.655256, 94.427116)" stroke="#000000">
                <circle id="Oval" fill="#000000" cx="11.8511096" cy="6" r="5.5"></circle>
                <path d="M23.4460176,1.97353205 C20.8283228,1.89019871 13.0129836,1.8886047 -1.59872116e-14,1.96875" id="Path" stroke-width="5"></path>
            </g>
            <g id="left-eye" transform="translate(44.655256, 94.427116)" stroke="#000000">
                <circle id="Oval" fill="#000000" cx="11.8511096" cy="6" r="5.5"></circle>
                <path d="M23.4460176,1.97353205 C20.8283228,1.89019871 13.0129836,1.8886047 -1.59872116e-14,1.96875" id="Path" stroke-width="5"></path>
            </g>
            <path d="M66.6618928,80.3958663 C64.044198,80.3125329 57.3753191,80.3125329 46.655256,80.3958663" id="left-eyebrow" stroke="#000000" stroke-width="5"></path>
            <path d="M83.5464013,131.690979 C86.9255971,131.690979 95.5817579,131.697742 99.9043806,131.690979 C98.9559633,125.530459 96.3211698,111.526711 92,89.6797371" id="nose" stroke="#000000" stroke-width="5"></path>
            <path d="M127.661893,80.3958663 C125.816045,77.5350868 123.053215,74.8645615 121.117659,72.1993917 C119.04916,73.3171249 114.591354,76.0492831 107.744241,80.3958663" id="right-eyebrow" stroke="#000000" stroke-width="5"></path>
            <path d="M56.5150373,150.866995 C57.7227528,153.064158 58.9524145,155.598501 60.1128783,157.848664 C64.6431676,157.848664 108.965156,157.848664 113.273971,157.848664 C114.463876,155.521441 115.723847,153.194218 117.053884,150.866995" id="mouth" stroke="#000000" stroke-width="5"></path>
            <g id="shirt" transform="translate(0.209252, 202.836212)">
                <path d="M0,60.5909044 L173.795748,60.5909044 C167.806828,45.2190971 162.136407,34.785326 156.784485,29.289591 C151.432564,23.7938561 142.303693,19.0306591 129.397874,15 C111.111068,16.7940285 100.318199,18.3243299 97.0192678,19.5909044 C97.0192678,27.7669866 96.5363214,27.7669866 86.5752089,34.9204082 C81.4242028,30.0624954 76.2971139,26.5909044 76.2971139,19.5909044 C71.3177135,17.0870016 60.6846335,15.5567001 44.3978738,15 C31.7963658,18.9117031 22.7617294,23.6749001 17.2939647,29.289591 C11.8262,34.9042819 6.0615451,45.3380531 0,60.5909044 Z" id="shirt-colour" fill="#699ABA"></path>
                <g id="stripes" transform="translate(0.297114, 16.689017)" opacity="0.645600818" stroke="#3E596C" stroke-linecap="square" stroke-width="4">
                    <g id="vertical-left" transform="translate(5.000000, 0.000000)">
                        <line x1="1" y1="27.9018874" x2="1" y2="42.9018874" id="Line"></line>
                        <line x1="10" y1="16.9018874" x2="10" y2="42.9018874" id="Line"></line>
                        <line x1="19" y1="9.90188741" x2="19" y2="42.9018874" id="Line"></line>
                        <line x1="28" y1="5.90188741" x2="28" y2="42.9018874" id="Line"></line>
                        <line x1="37" y1="0.997427971" x2="37" y2="42.9018874" id="Line"></line>
                        <line x1="46" y1="-2.74463895e-14" x2="46" y2="42.9018874" id="Line"></line>
                        <line x1="55" y1="2.90188741" x2="55" y2="42.9018874" id="Line"></line>
                        <line x1="64" y1="2.90188741" x2="64" y2="42.9018874" id="Line"></line>
                        <line x1="73" y1="11.6734158" x2="73" y2="42.9018874" id="Line"></line>
                    </g>
                    <g id="vertical-right" transform="translate(131.000000, 22.000000) scale(-1, 1) translate(-131.000000, -22.000000) translate(94.000000, 0.000000)">
                        <line x1="1" y1="27.9018874" x2="1" y2="42.9018874" id="Line"></line>
                        <line x1="10" y1="16.9018874" x2="10" y2="42.9018874" id="Line"></line>
                        <line x1="19" y1="9.90188741" x2="19" y2="42.9018874" id="Line"></line>
                        <line x1="28" y1="5.90188741" x2="28" y2="42.9018874" id="Line"></line>
                        <line x1="37" y1="0.997427971" x2="37" y2="42.9018874" id="Line"></line>
                        <line x1="46" y1="-2.74463895e-14" x2="46" y2="42.9018874" id="Line"></line>
                        <line x1="55" y1="2.90188741" x2="55" y2="42.9018874" id="Line"></line>
                        <line x1="64" y1="1.90188741" x2="64" y2="42.9018874" id="Line"></line>
                        <line x1="73" y1="11.6734158" x2="73" y2="42.9018874" id="Line"></line>
                    </g>
                    <g id="horizontal" transform="translate(0.000000, 5.401887)">
                        <line x1="-1.92068583e-14" y1="37" x2="173" y2="37" id="Line"></line>
                        <line x1="1" y1="28" x2="170.527164" y2="28" id="Line"></line>
                        <line x1="6" y1="18.5" x2="166" y2="18.5" id="Line"></line>
                        <line x1="15.0794562" y1="9.5" x2="81" y2="9.5" id="Line"></line>
                        <line x1="93.0794562" y1="9.5" x2="158" y2="9.5" id="Line"></line>
                        <line x1="27.1630839" y1="0.5" x2="74" y2="0.5" id="Line"></line>
                        <line x1="96.7221539" y1="0.5" x2="146.640615" y2="0.5" id="Line"></line>
                    </g>
                </g>
                <path d="M0,60.5909044 C0,37.2281776 29.8439544,17.2596099 45.6148932,15.1637881 C52.1074156,14.3009879 67.7207807,16.689017 77.2971139,19.5909044 C77.2971139,22.5909044 77.2971139,27.0970112 77.2971139,28.3624328 C78.4415109,29.1892415 80.2578024,29.9304179 81.684437,31.2257792 C82.7166202,32.1629851 84.2541792,33.9513601 86.2971139,36.5909044" id="shirt-outline-left" stroke="#000000" stroke-width="6" stroke-linecap="square" stroke-linejoin="round"></path>
                <path d="M87,60.5909044 C87,37.2281776 116.843954,17.2596099 132.614893,15.1637881 C139.107416,14.3009879 154.720781,16.689017 164.297114,19.5909044 C164.297114,22.5909044 164.297114,27.0970112 164.297114,28.3624328 C165.441511,29.1892415 167.257802,29.9304179 168.684437,31.2257792 C169.71662,32.1629851 171.254179,33.9513601 173.297114,36.5909044" id="shirt-outline-right" stroke="#000000" stroke-width="6" stroke-linecap="square" stroke-linejoin="round" transform="translate(130.148557, 37.787972) scale(-1, 1) translate(-130.148557, -37.787972) "></path>
                <path d="M86.2971139,34.9204082 C86.2971139,37.2782975 86.2971139,55.7356028 86.2971139,60.5909044" id="shirt-zip" stroke="#000000" stroke-width="4"></path>
                <g id="colar" transform="translate(46.052772, 0.803329)">
                    <path d="M-1.59872116e-14,17.9764021 C3.77065623,13.805498 14.2634152,2.86857074 18.3552627,1.42108547e-14 C22.1171349,0.958609048 28.6944915,8.52321838 30.8847795,11.4372371 C30.8847795,15.173139 20.3008774,34.7310551 15.5487674,42.7925371 C10.5879908,36.4091938 1.06172636,20.8575761 -1.59872116e-14,17.9764021 Z" id="colour" fill="#699ABA" transform="translate(15.442390, 21.396269) scale(-1, 1) translate(-15.442390, -21.396269) "></path>
                    <g id="lines" transform="translate(0.407426, 5.287576)" opacity="0.645600818" stroke="#3E596C" stroke-linecap="square" stroke-width="4">
                        <g id="horizontal">
                            <line x1="0.836916055" y1="8.5" x2="19.8369161" y2="27.5" id="Line"></line>
                            <line x1="5.83691606" y1="0.5" x2="24.8369161" y2="19.5" id="Line"></line>
                        </g>
                        <g id="vertical" transform="translate(4.000000, 1.000000)">
                            <line x1="12.8369161" y1="0.5" x2="0.836916055" y2="13.5" id="Line"></line>
                            <line x1="17.8369161" y1="8.5" x2="5.83691606" y2="21.5" id="Line"></line>
                            <line x1="22.8369161" y1="16.5" x2="10.8369161" y2="29.5" id="Line"></line>
                        </g>
                    </g>
                    <path d="M-1.59872116e-14,17.9764021 C3.77065623,13.805498 14.2634152,2.86857074 18.3552627,7.10542736e-14 C22.1171349,0.958609048 28.6944915,8.52321838 30.8847795,11.4372371 C30.8847795,15.173139 20.3008774,34.7310551 15.5487674,42.7925371 C10.5879908,36.4091938 1.06172636,20.8575761 -1.59872116e-14,17.9764021 Z" id="outline" stroke="#000000" stroke-width="6" stroke-linejoin="round" transform="translate(15.442390, 21.396269) scale(-1, 1) translate(-15.442390, -21.396269) "></path>
                </g>
                <g id="colar" transform="translate(111.552772, 22.303329) scale(-1, 1) translate(-111.552772, -22.303329) translate(96.052772, 0.803329)">
                    <path d="M-1.59872116e-14,17.9764021 C3.77065623,13.805498 14.2634152,2.86857074 18.3552627,1.42108547e-14 C22.1171349,0.958609048 28.6944915,8.52321838 30.8847795,11.4372371 C30.8847795,15.173139 20.3008774,34.7310551 15.5487674,42.7925371 C10.5879908,36.4091938 1.06172636,20.8575761 -1.59872116e-14,17.9764021 Z" id="colour" fill="#699ABA" transform="translate(15.442390, 21.396269) scale(-1, 1) translate(-15.442390, -21.396269) "></path>
                    <g id="lines" transform="translate(0.407426, 5.287576)" opacity="0.645600818" stroke="#3E596C" stroke-linecap="square" stroke-width="4">
                        <g id="horizontal">
                            <line x1="0.836916055" y1="8.5" x2="19.8369161" y2="27.5" id="Line"></line>
                            <line x1="5.83691606" y1="0.5" x2="24.8369161" y2="19.5" id="Line"></line>
                        </g>
                        <g id="vertical" transform="translate(4.000000, 1.000000)">
                            <line x1="12.8369161" y1="0.5" x2="0.836916055" y2="13.5" id="Line"></line>
                            <line x1="17.8369161" y1="8.5" x2="5.83691606" y2="21.5" id="Line"></line>
                            <line x1="22.8369161" y1="16.5" x2="10.8369161" y2="29.5" id="Line"></line>
                        </g>
                    </g>
                    <path d="M-1.59872116e-14,17.9764021 C3.77065623,13.805498 14.2634152,2.86857074 18.3552627,7.10542736e-14 C22.1171349,0.958609048 28.6944915,8.52321838 30.8847795,11.4372371 C30.8847795,15.173139 20.3008774,34.7310551 15.5487674,42.7925371 C10.5879908,36.4091938 1.06172636,20.8575761 -1.59872116e-14,17.9764021 Z" id="outline" stroke="#000000" stroke-width="6" stroke-linejoin="round" transform="translate(15.442390, 21.396269) scale(-1, 1) translate(-15.442390, -21.396269) "></path>
                </g>
            </g>
        </g>
    </g>
</svg>