<?xml version="1.0" encoding="UTF-8"?>
<svg width="128px" height="100px" viewBox="0 0 128 100" version="1.1" xmlns="http://www.w3.org/2000/svg" xmlns:xlink="http://www.w3.org/1999/xlink">
    <title>cookie-monster-says</title>
    <g id="Page-1" stroke="none" stroke-width="1" fill="none" fill-rule="evenodd">
        <g id="cookie-monster-says" transform="translate(0.000062, -0.000016)">
            <path d="M81.2992766,22.7953393 C81.3584263,22.8249142 81.417576,22.854489 81.4767257,22.8914576 C83.0515864,23.9191836 84.8334711,24.8803662 86.7410489,25.065209 C88.9665563,25.2870204 91.2216386,25.0208468 93.4249649,24.6585549 C93.7650757,24.5994052 94.0756116,24.680736 94.349179,24.88776 C94.6227463,25.0947839 94.785408,25.3831387 94.8149829,25.7232495 C94.9037074,26.5809201 95.0146131,27.3055039 94.6079589,28.126206 C94.400935,28.5476476 94.1495487,28.9247269 93.8759814,29.2796251 C94.9554634,29.4718616 96.0127643,29.7158541 97.047884,30.2112329 C97.1144274,30.2408077 97.1735771,30.2777763 97.2327268,30.3221386 C98.8593435,31.4977388 99.5617462,33.2648361 100.367661,35.0171459 C100.559897,35.4238001 100.515535,35.8748166 100.241968,36.2371085 C100.012763,36.5476444 99.6726519,36.7250935 99.2955726,36.7250935 C99.5173839,37.124354 99.7170142,37.5236144 99.9092507,37.9302686 C100.168031,38.4921908 100.441598,39.5347042 100.877827,39.9487521 C101.802041,40.8581787 103.184665,41.3683449 104.345478,41.8859048 C104.692983,42.0411727 104.929581,42.3221338 105.0257,42.6918194 C105.114424,43.061505 105.047881,43.4164032 104.818676,43.7195454 C104.057123,44.7176966 103.051578,45.0652011 101.972096,45.1169571 C102.689287,46.5809121 103.27339,48.1040169 103.53217,49.7380273 C103.768769,51.2167698 104.042336,52.6955123 104.241966,54.1816485 C104.301116,54.6326649 104.123667,55.0541065 103.753981,55.3202802 C103.391689,55.5864538 102.940673,55.6234224 102.534019,55.4311859 C102.356569,55.349855 102.186514,55.2685242 102.016459,55.1797997 C102.230876,55.8230526 102.467475,56.4515182 102.741043,57.0651963 C102.748436,57.0873775 102.75583,57.1021649 102.763224,57.1169523 C102.829767,57.2870077 102.933279,57.4200945 103.051578,57.5457876 C103.354721,57.8489298 103.805737,58.0929223 104.175423,58.30734 C104.626439,58.5587262 105.062668,58.8027187 105.469322,59.1206484 C105.964701,59.5051214 106.075607,60.2001304 105.735496,60.725084 C105.143999,61.6345106 104.633833,62.4700001 103.443445,62.6400555 C103.436052,62.6400555 103.428658,62.6400555 103.421264,62.6400555 C102.23827,62.780536 101.210544,62.4995749 100.182818,62.1003145 C100.079306,63.8895929 100.049731,65.6788713 99.7613764,67.4607559 C99.7613764,67.4755434 99.7613764,67.4903308 99.7539827,67.5051182 C99.4730217,68.9394984 99.155092,70.3369101 98.1347597,71.4459669 C98.127366,71.4607544 98.1199723,71.4681481 98.1125786,71.4755418 C97.2623017,72.3479998 96.2641505,72.858166 95.2438182,73.4792378 C94.9184948,73.6862618 94.5414155,73.7232303 94.1865173,73.5827498 C94.0756116,73.9006794 93.9794934,74.2260028 93.8907688,74.5513261 C93.7724694,74.9579803 93.6172014,75.3498471 93.4249649,75.7195327 C93.1809724,76.1927303 92.8926176,76.636353 92.6042628,77.0799758 C92.2050024,77.6788665 91.7465922,78.3516943 91.5617494,79.054097 C90.955465,81.4274787 90.6005668,83.86001 90.2087,86.2703603 C90.156944,86.6030773 89.9942824,86.869251 89.7133213,87.0688812 C89.4397539,87.2611178 89.1366117,87.3276612 88.8038947,87.2685115 C88.1162794,87.1354246 87.4434516,86.9505818 86.9332854,86.4847779 C86.6966866,87.0688812 86.4157256,87.6308034 86.0682211,88.1705444 C85.4249681,89.1539081 84.5155415,89.8193422 83.5395714,90.4552015 C81.9277421,91.5051087 80.2050072,92.3775667 78.4748784,93.2352374 C78.0386494,93.449655 77.5506644,93.3905053 77.1735851,93.0799694 C76.9665611,92.909914 76.8260806,92.6881027 76.7669309,92.4441101 C76.6782063,92.5845907 76.5894818,92.7250712 76.5007572,92.858158 C75.6504803,94.2112074 74.8667468,95.4459574 73.4175792,96.2370846 C73.4027917,96.2444783 73.395398,96.251872 73.3880043,96.251872 C71.1033472,97.4200786 68.7817215,97.1095427 66.3417964,97.2278421 C66.3122216,97.2278421 66.2826467,97.2278421 66.2530719,97.2278421 C66.0978039,97.2278421 65.4915195,97.8637013 65.2623144,98.0855127 C64.2271947,99.1649947 62.778027,99.6603734 61.3214657,99.8230351 C59.0072337,100.067028 56.6412457,100.126177 54.371376,99.5568615 C54.090415,99.4903181 53.8612099,99.3424438 53.6985482,99.1132387 C48.3455004,100.954273 41.3066862,98.7657342 36.3676863,95.919155 C36.145875,96.1409663 35.8575202,96.251872 35.5321968,96.251872 C33.0183346,96.2296909 29.9277628,93.8267344 27.3843258,91.5420772 C27.2808138,91.6603766 27.1551207,91.7564949 26.9998527,91.830432 C26.2309066,92.2001176 25.5654725,92.5106536 24.6930145,92.2518736 C23.4656582,91.9191566 22.6967121,91.1132419 21.7872855,90.2925398 C21.7724981,90.2777524 21.7577106,90.2703587 21.7429232,90.2555713 C20.412055,88.9394905 19.2142736,87.512504 17.994311,86.1003049 C17.9573425,86.225998 17.9203739,86.3590848 17.8834053,86.4921717 C17.7503185,86.921007 17.4249952,87.2241492 16.9887661,87.3202675 C16.5525371,87.4237794 16.1237018,87.2832989 15.8279533,86.9505818 C14.3935731,85.3387525 12.9148306,83.8452226 12.2198216,81.7454083 C11.8205612,80.5550206 11.4582693,79.3572392 11.1181585,78.1520641 C11.0516151,78.1594578 10.9850717,78.1668515 10.9185283,78.1668515 C10.4675118,78.1742452 10.075645,77.9524338 9.85383367,77.5605671 C8.90004477,75.8969818 7.9018936,74.2629714 7.19209721,72.473693 C7.1847035,72.4589055 7.1847035,72.4441181 7.17730978,72.4293307 C6.57102537,70.6918083 6.43793854,68.9025299 6.23830831,67.098464 C6.23830831,67.0836766 6.23830831,67.0762829 6.23830831,67.0614955 C6.17915861,66.2999431 6.1126152,65.530997 6.06085921,64.7620509 C4.84089666,65.6123278 3.48045358,66.2407934 2.04607338,66.6400539 C1.57287578,66.7731407 1.09228448,66.6178727 0.78914227,66.2407934 C0.478606349,65.8563204 0.426850362,65.3535479 0.656055447,64.9173189 C1.49893866,63.320277 2.54145211,61.5531797 2.71890121,59.7269328 C2.71890121,59.3794283 2.71150749,59.0319238 2.68193264,58.6844193 C2.4749087,56.2223131 1.67638776,53.9598371 1.86123057,51.4311875 C1.86123057,51.4016126 1.86862428,51.3794315 1.86862428,51.3498566 C2.0017111,50.4330363 2.1200105,49.516216 2.23091619,48.5993956 C2.16437278,48.6585453 2.09782936,48.717695 2.03128595,48.7842384 C1.64681291,49.153924 1.08489077,49.2204675 0.611693172,48.9616875 C0.145889291,48.6955139 -0.0833157931,48.177954 0.0275898929,47.6530004 C0.567330898,45.1317445 0.981378792,42.5883074 1.71335632,40.1114138 C1.97952997,39.2241683 2.37139672,38.3812851 2.97028743,37.6714887 C3.80577693,36.6807312 4.67084128,35.734336 5.55808677,34.8027283 C4.95919606,34.4404364 4.39727392,34.0263885 3.92407633,33.4127103 C3.22906736,32.5180711 3.08858683,31.5125263 2.94810629,30.4256505 C2.8963503,30.0337838 3.02943713,29.6714919 3.31779191,29.3979245 C3.60614669,29.1243572 3.97583231,29.0134515 4.36769907,29.0873886 C7.0664041,29.590161 9.98692049,29.5014365 12.5007827,28.3036551 C12.8704683,28.1188123 13.2549414,27.9265757 13.6172333,27.7047644 C12.9665866,27.638221 12.3011525,27.6012524 11.6726869,27.4755593 C11.2512453,27.4016222 10.925922,27.1280548 10.770654,26.7361881 C10.615386,26.3369276 10.6745357,25.915486 10.925922,25.5753752 C11.5100252,24.7990354 12.2567902,24.1853573 13.0922797,23.6899785 C14.8224084,22.6770399 16.6560491,21.8119756 18.6819263,21.6345265 C19.1107616,21.5753768 19.5322032,21.5458019 19.9536448,21.5458019 C19.9462511,21.5310145 19.9462511,21.5236208 19.9388574,21.5162271 C19.7022586,21.1391478 19.5839592,20.7103124 19.5913529,20.2666897 C19.613534,19.3055071 20.1237002,18.7066164 20.5968978,17.9524577 C20.796528,17.6345281 21.0996702,17.4422916 21.4767496,17.3979293 C21.8464352,17.353567 22.186546,17.4644727 22.4601133,17.7306463 C23.4804456,18.7214038 25.0405189,19.1354517 26.3861746,19.4755625 C27.3103886,19.7047676 28.2567838,19.8378544 29.203179,19.9265789 C29.1440293,19.7934921 29.0922733,19.667799 29.0405173,19.5347122 C27.6431057,15.837856 27.8427359,11.5790776 29.5876521,8.03748939 C31.5987418,3.93397901 35.6209214,0.932131778 40.1310859,0.177973113 C40.1384797,0.177973113 40.1458734,0.177973113 40.1532671,0.170579401 C43.1477206,-0.265649631 46.2974421,0.118823414 48.9813597,1.50884134 C52.4120422,3.21678891 55.066385,6.32954183 56.249379,9.9524609 C56.3602847,9.73064953 56.4785841,9.50883816 56.5968835,9.28702679 C58.792816,5.15394156 63.1107441,2.2556063 67.790964,1.91549553 C70.8741421,1.69368415 74.0090762,2.55135479 76.5599069,4.29627092 C79.9536209,6.62529033 82.2160969,10.4552333 82.6819008,14.5365626 C83.0072242,17.3461733 82.5414203,20.2519023 81.2992766,22.7953393 Z" id="head" fill="#000000"></path>
            <path d="M40.3307162,1.36836081 C43.0737835,0.961706627 45.964725,1.3018174 48.4490124,2.58832336 C51.8649075,4.28887721 54.4896754,7.53471695 55.3695272,11.2537543 C56.2345916,14.6622557 55.6357008,18.4182616 53.7503042,21.390534 C51.9018761,24.3923812 48.7891232,26.5957075 45.3362595,27.3202913 C42.4231368,27.9783317 39.280809,27.5642838 36.6190726,26.2260219 C33.6911624,24.7546731 31.3251745,22.1742675 30.1717553,19.1058769 C28.870462,15.7269503 29.0479111,11.8082827 30.6671341,8.56983669 C32.493381,4.79904336 36.2050247,2.05597606 40.3307162,1.36836081 Z M44.1754466,13.1243635 C42.4231368,13.6714982 41.0183314,15.2093904 40.6782207,17.02085 C40.0867237,19.4977436 41.698553,22.2112361 44.1089032,22.9727884 C45.632008,23.4238049 47.3843178,23.2611432 48.6930049,22.314748 C50.5784016,21.0430295 51.4360722,18.4404427 50.6079764,16.3110536 C49.7650932,13.7602228 46.7262774,12.2297243 44.1754466,13.1243635 Z M67.8796886,3.12067065 C70.6892993,2.89146556 73.5654534,3.6899865 75.8796854,5.29442209 C78.9850446,7.40902384 81.0700715,10.9358247 81.4915131,14.6696494 C81.8316239,17.5014413 81.2844892,20.4367451 79.8722901,22.9210325 C78.2308859,25.8563363 75.4286689,28.1631745 72.1680418,29.0578137 C68.7225718,30.0781461 64.8630539,29.4201057 61.8981753,27.4164096 C59.103352,25.5827689 57.1144433,22.6104965 56.3676784,19.3572631 C55.6800631,16.170573 56.0719299,12.7177093 57.661578,9.84894893 C59.6578804,6.09294303 63.6061228,3.40902543 67.8796886,3.12067065 Z M63.8501153,9.06521542 C62.0386558,9.4718696 60.5081573,10.9136435 60.0349597,12.7103156 C59.5173999,14.3517198 59.9905975,16.2149353 61.0996543,17.508835 C62.3861603,19.0171523 64.5820929,19.667799 66.4822769,19.076302 C68.4637919,18.536561 69.9573218,16.6881329 70.1717394,14.654862 C70.3565822,12.8507962 69.5358802,10.9653995 68.049744,9.91549234 C66.8593563,9.04303428 65.2844955,8.74728578 63.8501153,9.06521542 Z" id="eyes" fill="#FFFFFF"></path>
            <path d="M20.9591897,20.8803678 C20.463811,20.0818469 21.2105759,19.2537511 21.6172301,18.5957107 C22.8297989,19.771311 24.5007779,20.2445086 26.0904261,20.643769 C27.2660264,20.9395175 28.4638078,21.0873918 29.6689829,21.1761163 C31.5839544,24.732492 34.9776684,27.5051341 38.9333045,28.4293482 C41.3362611,29.0947823 43.9018793,29.0726012 46.2974421,28.3923796 C50.2530782,27.4238033 53.5876425,24.5846177 55.4878266,21.0208484 C56.7151829,24.6511612 59.384313,27.7934889 62.8593579,29.4570742 C65.7207246,30.7879424 69.0405014,31.2167778 72.1014984,30.388682 C75.7465986,29.5531925 78.8963201,27.0836925 80.8186853,23.9043962 C82.5783888,25.0430279 84.5081478,26.0485728 86.6227495,26.2703842 C88.9591626,26.4848018 91.3103632,26.2260219 93.6172014,25.8415489 C93.6763511,26.4256521 93.7946505,27.0393303 93.5284769,27.586465 C93.0478856,28.5550413 92.2641521,29.3092 91.5395683,30.0929335 C93.2105473,30.4182568 94.9702508,30.5513436 96.5229304,31.2981086 C97.9203421,32.3110472 98.5783825,34.0042073 99.2733914,35.5199184 C98.5488076,35.4238001 97.8168301,35.3276819 97.0922463,35.2389573 C97.6615621,36.3036519 98.3122088,37.3313779 98.8149813,38.4330411 C99.1846669,39.2463494 99.3769034,40.1705635 100.034944,40.8138165 C101.099638,41.8489362 102.519231,42.3960709 103.857493,42.9875679 C102.903704,44.244499 101.20315,43.9635379 99.8574947,43.7121517 C100.951764,45.6566981 102.001671,47.6973627 102.341782,49.9228701 C102.585775,51.3942189 102.851948,52.8655677 103.051578,54.3443102 C101.802041,53.7528132 100.567291,53.0430168 99.8427073,51.8230542 C100.34548,53.7676006 100.811284,55.7343281 101.646773,57.5679688 C102.17912,58.8914433 103.687438,59.2537352 104.722557,60.0670435 C104.367659,60.621572 104.005367,61.3387621 103.27339,61.4422741 C101.802041,61.6197232 100.426811,60.8951393 99.1107298,60.3406109 C98.8815247,62.6474492 98.9406744,64.9764686 98.5709888,67.2685194 C98.3417837,68.4515134 98.0830037,69.7158382 97.2401205,70.6326586 C96.4933556,71.4089984 95.5173855,71.8969834 94.6153526,72.4589055 C94.5266281,71.7195343 94.4600847,70.980163 94.3935412,70.2407918 C93.6615637,71.4903292 93.1218227,72.8359849 92.729956,74.2260028 C92.2641521,75.8969818 90.8223782,77.0725821 90.4009365,78.7509548 C89.772471,81.161305 89.4175728,83.630805 89.025706,86.0781238 C86.8741357,85.6788633 87.7687749,85.0356103 86.7188678,82.935796 C86.3565759,84.5180505 85.9573154,86.1372735 85.0552825,87.512504 C84.5229352,88.3405998 83.6948394,88.9099156 82.881531,89.4422629 C81.3066703,90.4625952 79.6282976,91.3202659 77.9425312,92.1557554 C78.2678545,90.9949425 78.615359,89.8489171 78.9406823,88.695498 L78.9702572,88.3405998 C78.5414219,89.1021521 77.7429009,89.5014126 77.1366165,90.0929096 C75.4656375,91.5864395 74.8889279,94.0633332 72.8408696,95.1797837 C70.8223861,96.2075098 68.4711856,95.919155 66.2826467,96.0226669 C65.4545509,96.0078795 64.9517785,96.7546445 64.39725,97.2500232 C63.5617605,98.1150876 62.3639791,98.4995606 61.1957726,98.6252537 C59.0220211,98.8544588 56.7965137,98.9210022 54.6597308,98.3886549 C54.8445736,97.8637013 55.118141,97.3683226 55.4434643,96.9099124 C49.7429121,100.813793 40.0645425,97.1834798 34.9924558,93.6197104 C35.2142672,94.0781206 35.4065037,94.5513182 35.5395905,95.0466969 C32.4046565,95.0245158 27.4434755,89.9228542 25.1883932,87.8526147 C25.424992,88.8877345 25.7281342,89.9524291 26.4822929,90.7435563 C26.0238827,90.957974 25.5358977,91.2463287 25.0109441,91.0910608 C24.0349741,90.8248871 23.317784,90.055941 22.5932001,89.3979006 C20.7299846,87.5568662 19.1181553,85.4866268 17.3584518,83.5420804 C17.2327586,84.4293259 16.9813724,85.2943903 16.7225925,86.1446672 C15.4286928,84.6954995 13.9795252,83.2611193 13.3584533,81.368329 C12.7152004,79.4533575 12.1606719,77.5088111 11.6800806,75.5420836 C11.413907,76.0152812 11.1551271,76.4884788 10.9037408,76.9616764 C9.97952678,75.3572408 8.99616303,73.7601989 8.31594149,72.0300702 C7.74662564,70.4034535 7.62832624,68.6659311 7.43608972,66.9653772 C7.31039661,65.4053039 7.1847035,63.8452306 7.13294751,62.2777636 C5.66159874,63.8156557 3.76880837,64.9099252 1.72075003,65.479241 C2.66714522,63.6825689 3.73923352,61.8489282 3.91668261,59.7934762 C3.98322603,56.9986529 2.85938174,54.3073416 3.05901198,51.519912 C3.33257934,49.6271216 3.54699699,47.741725 3.77620208,45.8489346 C2.88156288,46.4921876 2.0017111,47.150228 1.20319016,47.9117804 C1.74293117,45.4200993 2.14219164,42.8988434 2.87416917,40.4589183 C3.08119311,39.7269407 3.39912275,39.0245381 3.89450148,38.4478285 C5.0405269,37.072598 6.27527687,35.786092 7.51742055,34.5069798 C6.58581279,33.9894199 5.55069306,33.5384035 4.87786523,32.6807328 C4.34551793,31.9931176 4.24939967,31.1058721 4.1458877,30.2703826 C7.10337266,30.824911 10.2678816,30.6844305 13.0183426,29.3905308 C14.1865491,28.8138212 15.347362,28.1335997 16.1532766,27.0910862 C14.8298021,26.4330458 13.3140911,26.5661327 11.8944983,26.2925653 C12.3750896,25.6493123 13.0035552,25.1317525 13.6985641,24.732492 C15.2660311,23.8008842 16.966585,22.9875759 18.8076194,22.8323079 C20.4933858,22.6104965 22.1791522,22.8692765 23.8501312,23.061513 C22.9259172,22.2777795 21.8316478,21.7158573 20.9591897,20.8803678 Z M8.36030377,38.6252776 C7.97583072,39.5494916 7.57657025,40.5254617 7.55438912,41.545794 C8.44902832,42.1298973 9.24015554,41.006053 9.68377829,40.3480126 C11.0368277,42.5587326 13.03313,44.3406173 15.2882123,45.582761 C18.8667691,47.6751816 21.3140879,59.2759163 23.3917211,63.5420884 C25.3362674,67.6086302 27.6948617,71.5125103 30.6005907,74.965374 C32.108908,76.7472587 33.7872807,78.410844 35.8057642,79.6012317 C53.8464224,90.3886581 72.7965073,82.1594562 81.6098125,65.7010524 C82.9406807,62.8914417 83.7022331,59.8526259 84.8926208,56.9838655 C85.6985355,55.1871934 86.6153558,53.4422772 87.4804202,51.67518 C87.6504755,51.4237938 87.7392001,50.9949584 88.1088857,50.9727773 C89.5284785,50.6992099 90.9702524,50.4330363 92.3085143,49.8563267 C93.5654455,49.2796172 94.4970532,48.2223163 95.3473301,47.1650154 C95.7761655,47.6012444 96.2123945,48.0300798 96.6781984,48.4293402 C96.7373481,47.0836846 96.84086,45.6493044 96.2345756,44.4071607 C95.9536146,43.7121517 94.940676,43.54949 94.4379035,44.0744436 C94.1717299,44.6437595 94.5192344,45.2500439 94.681896,45.7971786 C92.8556491,47.6234256 90.4600862,48.9395064 87.8648932,49.1687115 C84.7151717,49.6936651 81.4323634,49.1317429 78.5783904,47.7269376 C77.6098141,47.2463462 76.8482617,46.455219 75.9758037,45.8267535 C76.456395,47.098472 77.277097,48.2962534 77.1957662,49.7158462 C76.2789459,49.7897833 75.376913,49.6123342 74.5340297,49.257436 C72.5820897,48.4884899 70.6227559,47.689969 68.8556586,46.558731 C67.0811676,45.4718553 65.5506692,44.0596562 63.8205405,42.9284182 C64.2715569,44.1114122 64.9665659,45.2278628 65.040503,46.5217624 C63.2955869,46.4700064 61.7133324,45.6493044 60.1236843,45.0208388 C58.4231304,44.3554047 57.2031679,42.9210245 56.1162922,41.5236128 C54.2826515,42.7731502 52.4859794,44.1114122 50.4527085,45.0282325 C49.461951,45.4348867 48.3381067,45.7676038 47.2734121,45.479249 C47.044207,45.3535559 46.5636157,45.2944062 46.6745214,44.9321143 C47.2660184,44.2149242 48.1089016,43.7417266 48.6560363,42.9875679 C48.9887534,42.5365514 48.9296037,41.9450545 48.8778477,41.4201009 C48.0497519,41.7897865 47.3695304,42.4108583 46.607978,42.8988434 C45.1735978,43.8378448 43.702249,44.7768463 42.0978134,45.4053119 C39.9388494,46.1816517 37.6024363,46.2038328 35.3325666,46.1372894 C35.7096459,45.0282325 36.2641744,43.8896008 35.8279453,42.7066068 C34.6523451,43.4237969 33.5358945,44.2223179 32.3011445,44.8286023 C30.6523467,45.6419107 28.7299814,45.7676038 26.9480967,45.3831307 C27.7540114,44.2371053 28.3233272,42.9505993 28.7891311,41.6345185 C25.7429216,42.8027251 22.7484681,44.296255 19.4656598,44.6733343 C16.4859937,44.8655709 13.9055881,43.0171428 11.7614115,41.1761084 C10.7928351,40.3332252 10.8963471,38.9579946 11.0146465,37.8119692 C11.3991196,36.3701953 8.82610765,37.6345201 8.36030377,38.6252776 Z" id="hair" fill="#2877A5"></path>
            <path d="M126.499938,45.1169571 C120.672716,51.2607931 113.816596,55.7871219 105.931578,58.6959435 C98.0465605,61.6047651 86.1351989,64.1031129 70.1974937,66.190987 C84.9818027,57.6753511 95.5733369,50.6506744 101.972096,45.1169571 C108.370856,39.5832397 116.546803,30.3775928 126.499938,17.5000165" id="Line" stroke="#000000" fill="#FFFFFF" stroke-linecap="square"></path>
        </g>
    </g>
</svg>