<?xml version="1.0" encoding="UTF-8"?>
<svg width="512px" height="512px" viewBox="0 0 512 512" version="1.1" xmlns="http://www.w3.org/2000/svg" xmlns:xlink="http://www.w3.org/1999/xlink">
    <title>icon-print</title>
    <g id="Page-1" stroke="none" stroke-width="1" fill="none" fill-rule="evenodd">
        <g id="icon-print" fill-rule="nonzero">
            <path d="M484.078,27.923 C466.072,9.917 442.131,0 416.666,0 L95.334,0 C42.766,0 0,42.769 0,95.333 L0,416.666 C0,469.233 42.768,512 95.334,512 L416.666,512 C469.233,512 512,469.233 512,416.666 L512,95.335 C512,69.87 502.084,45.929 484.078,27.923 Z" id="bg" fill="#75923C"></path>
            <g id="printer" transform="translate(56.000000, 56.000000)" fill="#FFFFFF">
                <path d="M357.4375,300 L307.5625,300 C302.974,300 299.25,296.266667 299.25,291.666667 C299.25,287.066667 302.974,283.333333 307.5625,283.333333 L357.4375,283.333333 C371.186375,283.333333 382.375,272.116667 382.375,258.333333 L382.375,141.666667 C382.375,127.883333 371.186375,116.666667 357.4375,116.666667 L41.5625,116.666667 C27.813625,116.666667 16.625,127.883333 16.625,141.666667 L16.625,258.333333 C16.625,272.116667 27.813625,283.333333 41.5625,283.333333 L91.4375,283.333333 C96.026,283.333333 99.75,287.066667 99.75,291.666667 C99.75,296.266667 96.026,300 91.4375,300 L41.5625,300 C18.636625,300 0,281.3 0,258.333333 L0,141.666667 C0,118.7 18.636625,100 41.5625,100 L357.4375,100 C380.363375,100 399,118.7 399,141.666667 L399,258.333333 C399,281.3 380.363375,300 357.4375,300 Z" id="Path"></path>
                <path d="M240.714286,349 L141.285714,349 C136.712,349 133,345.192 133,340.5 C133,335.808 136.712,332 141.285714,332 L240.714286,332 C245.288,332 249,335.808 249,340.5 C249,345.192 245.288,349 240.714286,349 Z" id="Path"></path>
                <path d="M240.714286,316 L141.285714,316 C136.712,316 133,312.192 133,307.5 C133,302.808 136.712,299 141.285714,299 L240.714286,299 C245.288,299 249,302.808 249,307.5 C249,312.192 245.288,316 240.714286,316 Z" id="Path"></path>
                <path d="M174.666667,283 L141.333333,283 C136.733333,283 133,279.192 133,274.5 C133,269.808 136.733333,266 141.333333,266 L174.666667,266 C179.266667,266 183,269.808 183,274.5 C183,279.192 179.266667,283 174.666667,283 Z" id="Path"></path>
                <path d="M307.678571,116 C303.085143,116 299.357143,112.288 299.357143,107.714286 L299.357143,41.4285714 C299.357143,27.724 288.1565,16.5714286 274.392857,16.5714286 L124.607143,16.5714286 C110.8435,16.5714286 99.6428571,27.724 99.6428571,41.4285714 L99.6428571,107.714286 C99.6428571,112.288 95.9148571,116 91.3214286,116 C86.728,116 83,112.288 83,107.714286 L83,41.4285714 C83,18.5931429 101.656643,0 124.607143,0 L274.392857,0 C297.343357,0 316,18.5931429 316,41.4285714 L316,107.714286 C316,112.288 312.272,116 307.678571,116 Z" id="Path"></path>
                <path d="M274.392857,399 L124.607143,399 C101.656643,399 83,380.334 83,357.409091 L83,224.318182 C83,219.726545 86.728,216 91.3214286,216 L307.678571,216 C312.272,216 316,219.726545 316,224.318182 L316,357.409091 C316,380.334 297.343357,399 274.392857,399 Z M99.6428571,232.636364 L99.6428571,357.409091 C99.6428571,371.167364 110.8435,382.363636 124.607143,382.363636 L274.392857,382.363636 C288.1565,382.363636 299.357143,371.167364 299.357143,357.409091 L299.357143,232.636364 L99.6428571,232.636364 Z" id="Shape"></path>
            </g>
        </g>
    </g>
</svg>