<?xml version="1.0" encoding="UTF-8"?>
<svg width="512px" height="512px" viewBox="0 0 512 512" version="1.1" xmlns="http://www.w3.org/2000/svg" xmlns:xlink="http://www.w3.org/1999/xlink">
    <title>icon-cv</title>
    <g id="Page-1" stroke="none" stroke-width="1" fill="none" fill-rule="evenodd">
        <g id="icon-cv" fill-rule="nonzero">
            <path d="M442.181818,0 L69.8181818,0 C31.2586647,0 0,31.2586647 0,69.8181818 L0,442.181818 C0,480.741335 31.2586647,512 69.8181818,512 L442.181818,512 C480.741335,512 512,480.741335 512,442.181818 L512,69.8181818 C512,31.2586647 480.741335,0 442.181818,0 Z" id="icon-path" fill="#75923C"></path>
            <path d="M389.076446,143.701 L316.635577,75.2845 C308.930428,68.00725 298.845218,64 288.238618,64 L150.320513,64 C127.536382,64 109,82.50475 109,105.25 L109,406.75 C109,429.49525 127.536382,448 150.320513,448 L360.679487,448 C383.463618,448 402,429.49525 402,406.75 L402,173.6665 C402,162.37975 397.289462,151.4575 389.076446,143.701 Z M367.186341,154 L311.094872,154 C309.023587,154 307.338462,152.31775 307.338462,150.25 L307.338462,97.477 L367.186341,154 Z M360.679487,425.5 L150.320513,425.5 C139.96409,425.5 131.538462,417.08875 131.538462,406.75 L131.538462,105.25 C131.538462,94.91125 139.96409,86.5 150.320513,86.5 L284.8,86.5 L284.8,150.25 C284.8,164.72425 296.595879,176.5 311.094872,176.5 L379.461538,176.5 L379.461538,406.75 C379.461538,417.08875 371.03591,425.5 360.679487,425.5 Z" id="Shape" fill="#FFFFFF"></path>
            <path d="M335.887179,214 L170.605128,214 C164.381508,214 159.335897,219.037 159.335897,225.25 C159.335897,231.463 164.381508,236.5 170.605128,236.5 L335.887179,236.5 C342.1108,236.5 347.15641,231.463 347.15641,225.25 C347.15641,219.037 342.1108,214 335.887179,214 Z" id="Path" fill="#FFFFFF"></path>
            <path d="M335.887179,274 L170.605128,274 C164.381508,274 159.335897,279.037 159.335897,285.25 C159.335897,291.463 164.381508,296.5 170.605128,296.5 L335.887179,296.5 C342.1108,296.5 347.15641,291.463 347.15641,285.25 C347.15641,279.037 342.1108,274 335.887179,274 Z" id="Path" fill="#FFFFFF"></path>
            <path d="M225.238359,334 L170.605128,334 C164.381508,334 159.335897,339.037 159.335897,345.25 C159.335897,351.463 164.381508,356.5 170.605128,356.5 L225.238359,356.5 C231.461979,356.5 236.50759,351.463 236.50759,345.25 C236.50759,339.037 231.461979,334 225.238359,334 Z" id="Path" fill="#FFFFFF"></path>
        </g>
    </g>
</svg>