<?xml version="1.0" encoding="UTF-8"?>
<svg width="46px" height="46px" viewBox="0 0 46 46" version="1.1" xmlns="http://www.w3.org/2000/svg" xmlns:xlink="http://www.w3.org/1999/xlink">
    <title>cnet</title>
    <g id="Page-1" stroke="none" stroke-width="1" fill="none" fill-rule="evenodd">
        <g id="cnet" fill-rule="nonzero">
            <circle id="Oval" fill="#B90000" cx="22.9999459" cy="23.0000265" r="22.2415402"></circle>
            <path d="M14.3285106,10.8916214 L15.9087266,10.8916214 L15.9087266,36.5503787 L14.3285106,36.5503787 L14.3285106,10.8916214 Z M7.8693777,20.2346485 C7.8891304,18.6149271 10.6940138,18.555669 10.6940138,20.1556377 L10.7137665,21.5383267 L12.8470581,21.5383267 L12.8470581,20.2544012 C12.985327,15.987818 5.6373226,15.987818 5.6965807,20.1753904 L5.6965807,27.5629002 C5.6373226,31.7504726 13.0050797,31.8689888 12.8668108,27.5629002 L12.8668108,26.0221896 L10.6940138,26.0221896 L10.6940138,27.6814164 C10.6940138,29.2813851 7.8891304,29.3208905 7.8693777,27.6814164 L7.8693777,20.1753904 L7.8693777,20.2346485 Z M20.1160517,18.5754217 C20.1160517,18.5754217 20.491353,18.0223461 21.4592353,17.4890232 C22.7036554,16.7976787 23.9283228,17.4890232 23.7505485,17.4100124 C24.7381835,17.8445718 25.0937321,18.8914649 25.1727429,20.0766269 L25.1727429,28.827073 L26.5554319,28.827073 L26.5554319,30.4270417 L22.9999459,30.4270417 L22.9999459,19.9581107 C22.9999459,18.4371528 20.4320949,18.4766582 20.3925895,20.0371215 L20.3925895,19.9581107 L20.3925895,30.4270417 L17.2124048,30.4270417 L17.2124048,28.827073 L18.2197925,28.827073 L18.2197925,19.0099811 L17.0148778,19.0099811 L17.0148778,17.4100124 L20.096299,17.4100124 L20.1160517,18.5754217 Z M36.1552441,27.5233948 C36.2342549,28.7085568 36.5898035,29.7554499 37.5774385,30.1900093 C37.3996642,30.1109985 38.0515033,30.4467944 38.7428478,30.4270417 L40.836634,30.4270417 L40.836634,28.827073 C40.836634,28.827073 39.9675152,28.8073203 39.4934504,28.827073 C38.9008694,28.827073 38.3872992,28.5505352 38.3477938,27.7209218 L38.3477938,19.0099811 L40.44158,19.0099811 L40.44158,17.4297651 L38.3477938,17.4297651 L38.3477938,14.0323007 L36.1552441,14.0323007 L36.1552441,27.5233948 Z M32.2244568,26.0221896 L32.2244568,27.6814164 C32.2244568,29.2813851 29.4195734,29.3208905 29.3998207,27.6814164 L29.3998207,24.2246939 L34.0021998,24.2246939 C34.2194795,24.2246939 34.3972538,24.0469196 34.3972538,23.8296399 L34.3972538,20.2741539 C34.5355227,15.987818 27.1677656,15.987818 27.2270237,20.1753904 L27.2270237,27.5629002 C27.1677656,31.7504726 34.5355227,31.8689888 34.3972538,27.5629002 L34.3972538,26.0221896 L32.2244568,26.0221896 Z M29.3998207,20.1556377 C29.4393261,18.555669 32.2244568,18.555669 32.2244568,20.1753904 L32.2244568,22.5852198 L29.3998207,22.5852198 L29.3998207,20.1556377 Z" id="Shape" fill="#FFFFFF"></path>
        </g>
    </g>
</svg>