<?xml version="1.0" encoding="UTF-8"?>
<svg width="417px" height="576px" viewBox="0 0 417 576" version="1.1" xmlns="http://www.w3.org/2000/svg" xmlns:xlink="http://www.w3.org/1999/xlink">
    <title>uwa-crest</title>
    <g id="Page-1" stroke="none" stroke-width="1" fill="none" fill-rule="evenodd">
        <g id="uwa-crest" transform="translate(5.000000, 18.000000)">
            <g id="Group" transform="translate(0.791530, 0.720725)">
                
                
                
                
                
                <path d="M392.339081,145.598581 C391.638714,189.254809 401.651372,362.193654 202.228267,483.318288 C2.80516241,362.193654 12.8178209,189.254809 12.1174536,145.598581 L12.1174536,8.52651283e-14 L392.326111,8.52651283e-14 L392.326111,145.598581 L392.339081,145.598581 L392.339081,145.598581 Z" id="Path" fill="#e8e8e6"></path>
                
                
                
                
                
                
                
                
                
                
                
                
                
                <path d="M140.959098,284.465853 C142.826744,279.66704 145.148332,275.101683 147.46992,271.509058 C148.170287,270.069414 148.870655,268.863226 149.571022,267.670008 C151.672124,263.10465 153.072858,258.552263 153.760256,255.193094 L153.760256,253.027143 C153.760256,246.308805 149.571022,240.563199 144.214509,240.563199 C138.845026,240.563199 134.422336,246.801656 134.422336,253.519994 C134.422336,257.5925 134.668762,262.157858 134.889248,265.750482 C135.122704,267.670008 135.122704,269.589533 135.122704,271.742514 L135.122704,275.335139 C134.889248,277.747515 134.668762,280.133952 134.422336,282.053477 C133.255058,287.812053 129.299279,291.897528 124.409678,291.897528 L124.176222,291.897528 C122.931254,291.844678 121.877465,290.961199 121.608209,289.744548 C121.290246,288.654549 121.210624,287.508881 121.374753,286.385378 C121.374753,285.905497 121.608209,285.425616 121.608209,284.945735 C121.608209,284.699309 121.841665,284.465853 121.841665,284.219428 C121.841665,283.01324 120.674386,281.820021 119.507107,281.820021 C118.339828,281.820021 117.406005,283.01324 117.406005,284.219428 C117.406005,284.465853 117.406005,284.699309 117.639461,285.17919 C117.872916,286.385378 118.106372,287.332171 117.872916,288.291934 C117.872916,289.498122 116.952063,290.457885 116.00527,290.457885 C115.304903,290.457885 114.617505,289.978003 114.137624,289.251696 C112.25314,285.372428 111.370274,281.082946 111.569611,276.774783 C111.569611,271.97597 113.203801,267.657038 115.071447,264.310839 C116.692668,262.144888 118.093402,259.512026 119.494137,256.866194 C122.295606,251.833925 124.383738,246.801656 125.784473,242.71618 C128.572972,235.517961 134.642822,230.00581 142.087467,228.799622 C153.734316,226.880097 164.927223,235.997842 167.015356,248.941667 C167.248811,250.627737 167.248811,252.300836 167.248811,253.74048 C167.248811,258.785719 166.081533,265.257631 164.226856,271.963 L163.9934,272.689307 C163.072547,275.322169 162.37218,278.434913 161.658843,281.573596 C161.658843,282.299902 161.425387,283.00027 161.425387,283.726577 C160.491564,289.731578 160.024652,295.243728 160.258108,299.56266 C160.258108,303.155284 162.35921,306.280998 165.381165,307.720642 C167.015356,308.446948 168.883002,309.160286 170.504222,309.873623 C171.904957,308.92683 174.239515,307.24076 174.926912,306.514454 C177.78981,303.462372 179.372791,299.428324 179.349602,295.243728 C179.349602,292.130984 178.415779,289.251696 177.028014,286.85229 C174.693456,283.01324 173.772603,276.307871 174.226545,268.863226 C174.693456,263.584532 175.627279,257.825956 176.794558,252.08035 C177.26147,250.160825 177.494926,248.721181 177.961837,246.801656 C180.231839,238.584437 182.097404,230.260816 183.551806,221.860798 C188.207951,195.713752 188.921288,173.652182 185.419452,169.086825 C192.176699,170.772894 199.400859,177.971114 203.356637,187.802196 C209.413517,188.515533 217.104588,194.274108 218.492352,203.625309 C223.861835,204.831497 229.451804,210.343647 230.839569,219.941273 C232.473759,217.541866 234.341405,213.949242 235.72917,210.590072 C238.450465,204.188187 240.480918,197.514214 241.78605,190.681483 C245.508373,193.560771 249.931063,199.552803 251.098341,206.037685 C257.388677,208.683517 261.111,214.429123 261.357425,223.546868 L261.357425,226.906037 C265.326173,229.785324 268.114673,235.064019 268.348129,241.05605 C268.581584,244.661645 267.881217,247.540933 266.480483,250.173795 C268.581584,253.053083 269.982319,256.645708 270.215775,260.718214 C270.215775,264.557264 269.281952,267.682977 267.647761,270.069414 C269.048496,272.468821 269.982319,275.101683 270.215775,277.980971 C270.449231,282.312872 269.281952,286.138953 266.947394,288.784785 C267.647761,290.470854 268.114673,292.37741 268.348129,294.296935 C268.581584,300.301936 264.612836,307.500156 259.723235,310.133018 C259.956691,312.76588 259.723235,313.972068 258.789412,316.6179 C256.921766,321.650169 253.432899,325.48922 249.010209,327.162319 C249.010209,329.068875 248.776753,330.041607 248.076386,332.207558 C246.909107,335.320301 244.820975,337.953164 242.486417,339.639233 C242.486417,340.119114 242.719873,341.312333 244.120608,342.518521 C250.520501,348.434852 257.937481,353.145161 266.013571,356.422109 C274.162187,359.625514 282.702976,361.723634 291.408371,362.660566 C289.540724,366.720102 283.950756,369.858785 277.426964,369.858785 C276.259685,369.858785 275.325862,369.61236 274.405009,369.61236 C272.303907,373.45141 266.247027,376.330698 259.022868,376.330698 C257.855589,376.330698 256.68831,376.330698 255.521031,376.084272 C253.653385,379.443441 248.530328,382.556185 242.473448,383.762373 C241.072713,386.641661 233.615098,389.287493 228.725497,390.234286 C225.03906,397.788199 223.051371,406.057693 222.902072,414.461807 C222.201705,427.405632 225.690572,438.922783 231.047085,446.121003 C231.047085,446.121003 231.280541,446.600884 231.280541,446.83434 C231.280541,447.560647 230.813629,448.040528 230.113262,448.040528 C229.879806,448.040528 229.879806,447.794102 229.64635,447.794102 C228.292618,447.038859 226.773561,446.629025 225.22366,446.600884 C220.567515,446.121003 216.131855,449.713628 214.043723,454.745896 C214.043723,454.992322 213.576812,455.225778 213.343356,455.225778 C212.642988,455.225778 212.176077,454.745896 212.176077,454.032559 L212.176077,453.786134 C212.176077,453.306252 212.409533,452.826371 212.409533,452.34649 C212.642988,447.547677 209.854489,443.708626 206.119197,443.228745 C204.595499,443.191841 203.109098,443.702648 201.929963,444.668389 L201.463051,444.668389 C201.229595,444.668389 200.99614,444.421964 200.99614,444.188508 C200.99614,440.829339 203.551183,437.236714 207.753387,435.317189 C207.999813,435.317189 208.220299,435.070763 208.220299,435.070763 C214.977546,431.94505 218.232957,421.867542 216.598767,410.363361 L216.598767,409.88348 C216.037552,407.071911 214.661888,404.487467 212.642988,402.451804 C211.568731,401.288746 210.305903,400.315316 208.907696,399.572517 C208.67424,399.572517 203.551183,396.213347 202.150449,395.007159 C201.916993,395.007159 200.749714,394.527278 200.516258,394.527278 C197.727759,394.527278 195.159745,394.280852 192.825188,394.047397 C191.437423,398.366328 190.49063,403.165141 190.270144,408.430866 C190.023719,417.795036 191.891365,426.186474 195.159745,432.178505 C195.393201,432.424931 195.393201,432.424931 195.393201,432.658387 C195.393201,433.138268 194.92629,433.618149 194.459378,433.618149 C194.225922,433.618149 193.992467,433.618149 193.759011,433.371724 C192.825188,432.411961 191.657909,431.93208 190.5036,432.165536 C189.115835,432.645417 188.169042,434.085061 188.169042,435.758161 C187.935586,437.44423 187.935586,439.350785 188.169042,441.516736 C188.169042,443.423292 188.635954,445.355787 188.869409,447.041856 L188.869409,447.275312 C188.869409,447.521737 188.402498,448.001619 188.169042,448.001619 C187.935586,448.001619 187.702131,447.755193 187.468675,447.755193 C187.468675,447.508768 187.235219,447.508768 187.235219,447.275312 C183.045985,443.436261 176.288737,443.916143 171.16568,448.001619 L170.698769,448.001619 C170.231857,448.001619 169.764946,447.755193 169.764946,447.275312 L169.764946,447.041856 C171.16568,442.709955 170.932225,438.637448 169.064578,436.484467 C167.196932,434.564942 164.408433,434.564942 161.140052,436.484467 L160.997385,436.484467 C160.530473,436.484467 160.297017,436.238042 160.063562,436.004586 C159.830106,432.891843 162.852061,429.779099 167.521176,428.572911 C169.155367,428.105999 170.543132,428.105999 171.956836,428.105999 C174.745335,428.339455 177.079893,427.613148 179.401481,426.41993 C187.326007,421.621117 187.559463,406.991222 179.401481,393.788001 C178.919197,392.744211 178.290298,391.774658 177.533835,390.908714 C177.228487,390.297031 176.835223,389.733353 176.366556,389.235614 C175.213706,387.292602 174.352818,385.190635 173.811512,382.997157 C169.494187,381.445084 165.354975,379.436349 161.464296,377.005126 C140.959098,363.801905 131.880263,342.700098 138.62454,326.397103 C136.289983,321.59829 135.122704,315.606259 135.122704,309.134346 C135.122704,306.488514 135.369129,303.855652 135.589615,301.689701 C136.703322,295.759088 138.505338,289.978708 140.959098,284.465853 L140.959098,284.465853 Z" id="Path" fill="#16181d" fill-rule="nonzero"></path>
                <path d="M215.509307,261.690946 C219.465085,257.61844 223.420863,253.053083 227.389611,248.500695 C239.282886,233.8708 246.260619,219.954243 246.960986,212.042686 C247.427898,206.997448 246.260619,202.44506 243.45915,200.77196 C243.225694,207.97018 233.913403,225.232937 218.998173,244.661645 C220.398908,247.307477 219.698541,251.859864 217.610408,255.93237 C216.676585,257.125589 216.209674,257.60547 215.042395,259.045114 C215.042395,260.004877 215.275851,260.718214 215.509307,261.690946 L215.509307,261.690946 Z" id="Path" fill="#16181d"></path>
                <path d="M216.910041,272.248335 C224.964961,267.812438 232.33843,262.238655 238.803004,255.698915 C246.960986,247.307477 253.017867,238.423188 256.273278,230.511631 C257.207101,228.35865 257.674012,225.712818 257.440556,222.83353 C257.207101,217.32138 254.185145,212.522567 250.449853,210.836498 C250.683309,212.042686 250.449853,213.002449 250.449853,214.195667 C249.51603,222.353649 242.525327,236.023781 230.411566,250.42022 C228.310464,252.819627 226.455788,255.219033 224.354686,257.372014 C224.354686,259.537965 223.654319,262.170827 222.253584,264.80369 C221.030863,267.137245 219.063325,268.995222 216.663616,270.082384 C216.663616,270.795721 216.910041,271.522028 216.910041,272.248335 L216.910041,272.248335 Z" id="Path" fill="#16181d"></path>
                <path d="M260.00857,232.184731 C262.576583,234.104256 264.210774,237.696881 264.210774,241.782357 C264.210774,244.181763 263.276951,246.827596 262.343128,248.747121 C262.343128,248.980576 262.109672,249.460458 261.876216,249.460458 C258.374379,256.658677 246.973956,266.736185 230.657992,275.361078 C226.235302,277.773455 221.799642,280.159891 217.376953,282.079416 L217.376953,279.926435 C219.845832,278.711424 221.82015,276.682137 222.966921,274.18083 C223.433833,273.700948 223.667289,272.974642 223.900744,272.261304 C230.472656,268.251871 236.501236,263.413314 241.837929,257.864865 C250.449853,249.214032 256.519703,240.096288 260.00857,232.184731 L260.00857,232.184731 Z M217.376953,289.277636 C217.376953,290.003943 217.143497,290.70431 217.143497,291.430617 L225.521965,289.277636 C243.225694,284.232397 256.740189,277.280603 261.64276,271.042147 C261.876216,271.042147 262.109672,270.562265 262.343128,270.562265 C263.510406,268.876196 265.131627,266.723215 265.598538,264.323808 C266.532362,260.251302 265.831994,257.125589 263.730892,254.492727 C258.594865,261.690946 250.449853,268.396315 240.437195,274.647741 C235.781049,277.527029 230.878478,279.913466 226.222332,282.066447 C225.755421,283.026209 225.055053,283.985972 224.354686,284.958704 C222.545972,287.102275 220.102217,288.614859 217.376953,289.277636 L217.376953,289.277636 Z" id="Shape" fill="#16181d"></path>
                <path d="M216.44313,300.301936 C217.830894,300.301936 219.465085,300.301936 220.865819,300.055511 C239.269916,299.095748 253.95169,295.010272 260.00857,290.224429 C260.242026,289.978003 260.475481,289.744548 260.708937,289.744548 C262.343128,288.304904 264.210774,286.138953 265.131627,283.985972 C266.032292,282.282255 266.512555,280.387885 266.532362,278.460852 C266.568674,276.531048 266.084835,274.627052 265.131627,272.948702 C264.664715,273.675009 264.210774,274.388346 263.743862,274.855257 L263.043495,275.594534 C257.686982,281.586565 243.705575,288.538359 225.301479,293.103717 C224.1342,295.010272 221.799642,296.696341 219.011143,297.88956 C218.262101,298.16805 217.474744,298.329896 216.676585,298.369441 C216.663616,299.095748 216.44313,299.822055 216.44313,300.301936 L216.44313,300.301936 Z" id="Path" fill="#16181d"></path>
                <path d="M214.808939,310.133018 L215.275851,310.133018 C233.679947,312.545394 248.582207,311.092781 255.57291,307.25373 C255.57291,307.25373 256.039822,307.007305 256.273278,307.007305 C258.381809,305.810249 260.212024,304.17897 261.64276,302.221461 C262.797069,300.535392 263.510406,298.849322 263.964348,296.942767 C264.298129,295.092085 264.137058,293.186069 263.497437,291.417647 C262.938185,292.046045 262.311917,292.611426 261.62979,293.103717 C261.396335,293.103717 261.162879,293.583598 260.929423,293.583598 C255.105999,298.369441 241.824959,302.221461 224.821598,303.648135 C223.654319,304.854324 222.253584,306.047542 220.632364,307.007305 C218.906041,307.685159 217.109395,308.168034 215.275851,308.446948 C215.042395,309.186225 215.042395,309.419681 214.808939,310.133018 L214.808939,310.133018 Z M212.707837,319.977069 C227.376641,324.036606 239.503372,325.009338 245.793708,323.089813 C246.027163,322.843387 246.494075,322.843387 246.494075,322.843387 C248.361721,322.117081 250.683309,320.923862 252.084043,319.484218 C253.307643,318.254728 254.261729,316.783846 254.885513,315.165287 C255.58588,313.245761 255.352424,311.806118 255.352424,311.806118 C254.652057,312.052543 254.185145,312.052543 253.484778,312.532424 L251.617132,313.245761 C245.793708,315.411712 236.001535,315.891594 221.799642,314.685405 C219.993724,316.670023 217.486843,317.874629 214.808939,318.044574 L213.187719,318.044574 C212.941293,318.770881 212.941293,319.250763 212.707837,319.977069 L212.707837,319.977069 Z M209.452426,329.3153 C219.698541,334.593994 228.323434,337.226857 233.679947,336.746975 L234.380314,336.746975 C238.128654,336.698686 241.61431,334.812844 243.705575,331.701737 C244.619139,330.360131 245.103137,328.772436 245.093486,327.149349 C244.626429,327.395775 243.939031,327.629231 243.225694,327.875656 L242.525327,327.875656 C236.701902,328.822449 229.244288,328.122082 219.231629,325.229824 C217.597439,327.149349 214.095602,328.355538 210.37328,327.395775 C210.221427,328.099087 209.905947,328.756707 209.452426,329.3153 L209.452426,329.3153 Z M186.859096,260.004877 L186.859096,260.484758 C186.859096,261.211065 187.326007,261.690949 188.026375,261.690949 C188.522332,261.691939 188.975433,261.410009 189.193654,260.964639 C192.68252,251.133557 195.950901,238.903069 198.052003,226.17973 C199.439768,216.828529 200.140135,208.437091 200.140135,201.238872 C200.140135,191.174334 196.884724,182.290045 191.995123,179.177302 C192.928946,188.774928 191.761667,205.324348 188.25983,224.273174 C187.003292,231.114734 185.528308,237.914365 183.837141,244.661645 C186.171698,246.334744 187.805889,250.173795 187.805889,254.492727 C187.779949,256.412252 187.546493,258.331777 186.859096,260.004877 L186.859096,260.004877 Z M208.985515,251.379983 C215.441779,243.279695 221.505633,234.874268 227.156155,226.1927 L227.156155,225.712818 C227.156155,217.554836 223.654319,210.603042 218.777687,208.929943 C219.944966,216.608043 216.676585,231.717819 209.919338,248.500695 C209.672912,249.447488 209.218971,250.407251 208.985515,251.379983 Z" id="Shape" fill="#16181d"></path>
                <path d="M179.168025,314.205524 C180.55579,313.245761 182.890348,311.572662 184.757994,308.693374 C185.149395,308.270495 185.465261,307.783535 185.691817,307.25373 C188.026375,303.181224 189.193654,295.983004 188.246861,287.825022 C188.246861,287.345141 188.013405,286.86526 188.013405,286.618834 C187.748592,284.380569 187.827319,282.114981 188.246861,279.900496 C188.713772,277.747515 189.41414,275.594534 190.114507,273.908465 C193.382888,267.423582 195.937931,263.830957 198.972856,255.919401 C200.373591,251.846895 200.140135,247.761419 198.272489,245.608438 C203.862458,222.587105 206.197015,202.43209 204.329369,193.807197 C208.985515,194.287078 213.408205,200.032684 214.342028,207.710785 C214.575483,209.876735 214.575483,212.029716 214.342028,213.949242 C213.174749,223.066986 210.386249,234.091286 206.650957,245.841893 C203.149121,256.879163 198.959887,266.943701 194.757683,275.101683 C193.934012,277.035169 193.30827,279.047101 192.890037,281.106684 C192.656581,283.506091 192.423125,285.905497 192.890037,287.825022 L192.890037,289.03121 C193.82386,297.189193 192.890037,304.387412 190.334993,308.459918 C189.40117,310.366474 188.000435,312.052543 186.599701,313.725643 C183.51102,316.717242 179.760847,318.938908 175.653219,320.210525 L175.186307,320.210525 C174.252484,320.210525 173.318661,319.250763 173.318661,318.291 C173.318661,317.564693 173.785573,316.851356 174.48594,316.6179 C176.600012,315.891594 178.234202,314.931831 179.168025,314.205524 L179.168025,314.205524 Z M239.03646,340.832451 C238.695407,341.684099 238.130825,342.427913 237.40227,342.985432 C236.397651,343.828888 235.198493,344.408407 233.913403,344.671502 C233.913403,344.671502 231.812301,345.151383 228.790346,344.917927 C228.217792,346.16004 227.333006,347.232507 226.222332,348.030671 C223.477207,350.606368 219.691606,351.761216 215.976218,351.156384 C215.509307,351.623296 215.042395,352.103177 214.575483,352.349603 C213.545559,353.391435 212.256001,354.1392 210.840191,354.515553 C209.128088,355.145347 207.278911,355.306443 205.483678,354.982465 C205.250222,354.982465 205.016767,354.736039 204.783311,354.736039 C201.994811,354.269128 198.259519,352.829484 194.070285,349.703771 C192.436095,350.663533 188.246861,351.38984 186.61267,351.38984 C181.243188,351.38984 175.886675,348.744008 171.697441,344.19162 C171.697441,343.932225 171.463985,343.711739 171.463985,343.452344 C171.463985,342.972463 171.930896,342.505551 172.384838,342.505551 C172.631264,342.505551 172.85175,342.751977 172.85175,342.751977 C177.053954,346.824483 181.710099,349.223889 186.599701,349.223889 C188.220921,349.223889 190.555479,348.744008 191.956213,348.264127 C192.872517,348.005464 193.740082,347.597971 194.524227,347.057939 C198.246549,349.703771 201.51493,351.38984 204.069974,352.103177 L204.536885,352.103177 C205.93762,352.583058 208.038722,352.583058 209.659943,352.103177 C210.84065,351.872435 211.956346,351.385426 212.928323,350.676503 C209.206001,349.71674 204.536885,347.317334 199.413828,343.724709 L201.048019,342.03864 C206.171076,345.397809 210.37328,347.317334 213.628691,347.784245 C213.862146,347.784245 214.329058,348.030671 214.329058,348.030671 C216.196704,348.277096 218.518292,348.277096 220.385938,347.784245 C221.970555,347.249514 223.406099,346.347299 224.575172,345.151383 C224.990673,344.959059 225.322421,344.622705 225.508995,344.20459 C219.919027,342.985432 213.161779,340.132084 205.717134,336.033638 L207.104899,333.880657 C216.884102,338.925896 225.275539,341.558758 231.098964,341.792214 L232.032787,341.792214 C234.146859,341.792214 236.701902,341.558758 239.03646,340.832451 L239.03646,340.832451 Z" id="Shape" fill="#16181d"></path>
            </g>
        </g>
    </g>
</svg>