<?xml version="1.0" encoding="UTF-8"?>
<svg width="408px" height="492px" viewBox="5 15 408 492" version="1.1" xmlns="http://www.w3.org/2000/svg">
    <title>uwa-crest</title>
    <defs>
        <!-- Soft white-to-light-white sheen so the shield reads with depth
             rather than a flat wash. Centred on the old flat #e8e8e6. -->
        <linearGradient id="uwa-shield" x1="0" y1="0" x2="0" y2="1">
            <stop offset="0" stop-color="#f2f2f0"/>
            <stop offset="1" stop-color="#d8d8d6"/>
        </linearGradient>
    </defs>
    <g id="Page-1" stroke="none" stroke-width="1" fill="none" fill-rule="evenodd">
        <g id="uwa-crest" transform="translate(5.000000, 18.000000)">
            <g id="Group" transform="translate(0.791530, 0.720725)">
                <path d="M392.339081,145.598581 C391.638714,189.254809 401.651372,362.193654 202.228267,483.318288 C2.80516241,362.193654 12.8178209,189.254809 12.1174536,145.598581 L12.1174536,8.52651283e-14 L392.326111,8.52651283e-14 L392.326111,145.598581 L392.339081,145.598581 L392.339081,145.598581 Z" id="Path" fill="url(#uwa-shield)"></path>
                <path d="M140.959098,284.465853 C142.826744,279.66704 145.148332,275.101683 147.46992,271.509058 C148.170287,270.069414 148.870655,268.863226 149.571022,267.670008 C151.672124,263.10465 153.072858,258.552263 153.760256,255.193094 L153.760256,253.027143 C153.760256,246.308805 149.571022,240.563199 144.214509,240.563199 C138.845026,240.563199 134.422336,246.801656 134.422336,253.519994 C134.422336,257.5925 134.668762,262.157858 134.889248,265.750482 C135.122704,267.670008 135.122704,269.589533 135.122704,271.742514 L135.122704,275.335139 C134.889248,277.747515 134.668762,280.133952 134.422336,282.053477 C133.255058,287.812053 129.299279,291.897528 124.409678,291.897528 L124.176222,291.897528 C122.931254,291.844678 121.877465,290.961199 121.608209,289.744548 C121.290246,288.654549 121.210624,287.508881 121.374753,286.385378 C121.374753,285.905497 121.608209,285.425616 121.608209,284.945735 C121.608209,284.699309 121.841665,284.465853 121.841665,284.219428 C121.841665,283.01324 120.674386,281.820021 119.507107,281.820021 C118.339828,281.820021 117.406005,283.01324 117.406005,284.219428 C117.406005,284.465853 117.406005,284.699309 117.639461,285.17919 C117.872916,286.385378 118.106372,287.332171 117.872916,288.291934 C117.872916,289.498122 116.952063,290.457885 116.00527,290.457885 C115.304903,290.457885 114.617505,289.978003 114.137624,289.251696 C112.25314,285.372428 111.370274,281.082946 111.569611,276.774783 C111.569611,271.97597 113.203801,267.657038 115.071447,264.310839 C116.692668,262.144888 118.093402,259.512026 119.494137,256.866194 C122.295606,251.833925 124.383738,246.801656 125.784473,242.71618 C128.572972,235.517961 134.642822,230.00581 142.087467,228.799622 C153.734316,226.880097 164.927223,235.997842 167.015356,248.941667 C167.248811,250.627737 167.248811,252.300836 167.248811,253.74048 C167.248811,258.785719 166.081533,265.257631 164.226856,271.963 L163.9934,272.689307 C163.072547,275.322169 162.37218,278.434913 161.658843,281.573596 C161.658843,282.299902 161.425387,283.00027 161.425387,283.726577 C160.491564,289.731578 160.024652,295.243728 160.258108,299.56266 C160.258108,303.155284 162.35921,306.280998 165.381165,307.720642 C167.015356,308.446948 168.883002,309.160286 170.504222,309.873623 C171.904957,308.92683 174.239515,307.24076 174.926912,306.514454 C177.78981,303.462372 179.372791,299.428324 179.349602,295.243728 C179.349602,292.130984 178.415779,289.251696 177.028014,286.85229 C174.693456,283.01324 173.772603,276.307871 174.226545,268.863226 C174.693456,263.584532 175.627279,257.825956 176.794558,252.08035 C177.26147,250.160825 177.494926,248.721181 177.961837,246.801656 C180.231839,238.584437 182.097404,230.260816 183.551806,221.860798 C188.207951,195.713752 188.921288,173.652182 185.419452,169.086825 C192.176699,170.772894 199.400859,177.971114 203.356637,187.802196 C209.413517,188.515533 217.104588,194.274108 218.492352,203.625309 C223.861835,204.831497 229.451804,210.343647 230.839569,219.941273 C232.473759,217.541866 234.341405,213.949242 235.72917,210.590072 C238.450465,204.188187 240.480918,197.514214 241.78605,190.681483 C245.508373,193.560771 249.931063,199.552803 251.098341,206.037685 C257.388677,208.683517 261.111,214.429123 261.357425,223.546868 L261.357425,226.906037 C265.326173,229.785324 268.114673,235.064019 268.348129,241.05605 C268.581584,244.661645 267.881217,247.540933 266.480483,250.173795 C268.581584,253.053083 269.982319,256.645708 270.215775,260.718214 C270.215775,264.557264 269.281952,267.682977 267.647761,270.069414 C269.048496,272.468821 269.982319,275.101683 270.215775,277.980971 C270.449231,282.312872 269.281952,286.138953 266.947394,288.784785 C267.647761,290.470854 268.114673,292.37741 268.348129,294.296935 C268.581584,300.301936 264.612836,307.500156 259.723235,310.133018 C259.956691,312.76588 259.723235,313.972068 258.789412,316.6179 C256.921766,321.650169 253.432899,325.48922 249.010209,327.162319 C249.010209,329.068875 248.776753,330.041607 248.076386,332.207558 C246.909107,335.320301 244.820975,337.953164 242.486417,339.639233 C242.486417,340.119114 242.719873,341.312333 244.120608,342.518521 C250.520501,348.434852 257.937481,353.145161 266.013571,356.422109 C274.162187,359.625514 282.702976,361.723634 291.408371,362.660566 C289.540724,366.720102 283.950756,369.858785 277.426964,369.858785 C276.259685,369.858785 275.325862,369.61236 274.405009,369.61236 C272.303907,373.45141 266.247027,376.330698 259.022868,376.330698 C257.855589,376.330698 256.68831,376.330698 255.521031,376.084272 C253.653385,379.443441 248.530328,382.556185 242.473448,383.762373 C241.072713,386.641661 233.615098,389.287493 228.725497,390.234286 C225.03906,397.788199 223.051371,406.057693 222.902072,414.461807 C222.201705,427.405632 225.690572,438.922783 231.047085,446.121003 C231.047085,446.121003 231.280541,446.600884 231.280541,446.83434 C231.280541,447.560647 230.813629,448.040528 230.113262,448.040528 C229.879806,448.040528 229.879806,447.794102 229.64635,447.794102 C228.292618,447.038859 226.773561,446.629025 225.22366,446.600884 C220.567515,446.121003 216.131855,449.713628 214.043723,454.745896 C214.043723,454.992322 213.576812,455.225778 213.343356,455.225778 C212.642988,455.225778 212.176077,454.745896 212.176077,454.032559 L212.176077,453.786134 C212.176077,453.306252 212.409533,452.826371 212.409533,452.34649 C212.642988,447.547677 209.854489,443.708626 206.119197,443.228745 C204.595499,443.191841 203.109098,443.702648 201.929963,444.668389 L201.463051,444.668389 C201.229595,444.668389 200.99614,444.421964 200.99614,444.188508 C200.99614,440.829339 203.551183,437.236714 207.753387,435.317189 C207.999813,435.317189 208.220299,435.070763 208.220299,435.070763 C214.977546,431.94505 218.232957,421.867542 216.598767,410.363361 L216.598767,409.88348 C216.037552,407.071911 214.661888,404.487467 212.642988,402.451804 C211.568731,401.288746 210.305903,400.315316 208.907696,399.572517 C208.67424,399.572517 203.551183,396.213347 202.150449,395.007159 C201.916993,395.007159 200.749714,394.527278 200.516258,394.527278 C197.727759,394.527278 195.159745,394.280852 192.825188,394.047397 C191.437423,398.366328 190.49063,403.165141 190.270144,408.430866 C190.023719,417.795036 191.891365,426.186474 195.159745,432.178505 C195.393201,432.424931 195.393201,432.424931 195.393201,432.658387 C195.393201,433.138268 194.92629,433.618149 194.459378,433.618149 C194.225922,433.618149 193.992467,433.618149 193.759011,433.371724 C192.825188,432.411961 191.657909,431.93208 190.5036,432.165536 C189.115835,432.645417 188.169042,434.085061 188.169042,435.758161 C187.935586,437.44423 187.935586,439.350785 188.169042,441.516736 C188.169042,443.423292 188.635954,445.355787 188.869409,447.041856 L188.869409,447.275312 C188.869409,447.521737 188.402498,448.001619 188.169042,448.001619 C187.935586,448.001619 187.702131,447.755193 187.468675,447.755193 C187.468675,447.508768 187.235219,447.508768 187.235219,447.275312 C183.045985,443.436261 176.288737,443.916143 171.16568,448.001619 L170.698769,448.001619 C170.231857,448.001619 169.764946,447.755193 169.764946,447.275312 L169.764946,447.041856 C171.16568,442.709955 170.932225,438.637448 169.064578,436.484467 C167.196932,434.564942 164.408433,434.564942 161.140052,436.484467 L160.997385,436.484467 C160.530473,436.484467 160.297017,436.238042 160.063562,436.004586 C159.830106,432.891843 162.852061,429.779099 167.521176,428.572911 C169.155367,428.105999 170.543132,428.105999 171.956836,428.105999 C174.745335,428.339455 177.079893,427.613148 179.401481,426.41993 C187.326007,421.621117 187.559463,406.991222 179.401481,393.788001 C178.919197,392.744211 178.290298,391.774658 177.533835,390.908714 C177.228487,390.297031 176.835223,389.733353 176.366556,389.235614 C175.213706,387.292602 174.352818,385.190635 173.811512,382.997157 C169.494187,381.445084 165.354975,379.436349 161.464296,377.005126 C140.959098,363.801905 131.880263,342.700098 138.62454,326.397103 C136.289983,321.59829 135.122704,315.606259 135.122704,309.134346 C135.122704,306.488514 135.369129,303.855652 135.589615,301.689701 C136.703322,295.759088 138.505338,289.978708 140.959098,284.465853 L140.959098,284.465853 Z" id="Path" fill="#16181d" fill-rule="nonzero"></path>
            </g>
        </g>
    </g>
</svg>
